<svg xmlns="http://www.w3.org/2000/svg" xmlns:xlink="http://www.w3.org/1999/xlink" contentStyleType="text/css" data-diagram-type="CLASS" height="570px" preserveAspectRatio="none" style="width:1829px;height:570px;background:#FFFFFF;" version="1.1" viewBox="0 0 1829 570" width="1829px" zoomAndPan="magnify"><?plantuml 1.2026.6?><defs/><g><!--cluster api--><g class="cluster" data-qualified-name="api" data-source-line="28" id="ent0001"><rect fill="#F8F8F8" height="90.45" rx="3" ry="3" style="stroke:#999999;stroke-width:1.5;" width="128" x="617" y="7"/><text fill="#000000" font-family="sans-serif" font-size="14" font-weight="700" lengthAdjust="spacing" textLength="22.0596" x="669.9702" y="22.5352">api</text></g><!--cluster operation--><g class="cluster" data-qualified-name="operation" data-source-line="32" id="ent0003"><rect fill="#F8F8F8" height="198" rx="3" ry="3" style="stroke:#999999;stroke-width:1.5;" width="387" x="7" y="129.45"/><text fill="#000000" font-family="sans-serif" font-size="14" font-weight="700" lengthAdjust="spacing" textLength="69.3779" x="165.811" y="144.9852">operation</text></g><!--cluster resolve--><g class="cluster" data-qualified-name="resolve" data-source-line="38" id="ent0007"><rect fill="#F8F8F8" height="198" rx="3" ry="3" style="stroke:#999999;stroke-width:1.5;" width="200" x="784" y="129.45"/><text fill="#000000" font-family="sans-serif" font-size="14" font-weight="700" lengthAdjust="spacing" textLength="52.4863" x="857.7568" y="144.9852">resolve</text></g><!--cluster model--><g class="cluster" data-qualified-name="model" data-source-line="43" id="ent0010"><rect fill="#F8F8F8" height="99" rx="3" ry="3" style="stroke:#999999;stroke-width:1.5;" width="308" x="436" y="228.45"/><text fill="#000000" font-family="sans-serif" font-size="14" font-weight="700" lengthAdjust="spacing" textLength="44.5498" x="567.7251" y="243.9852">model</text></g><!--cluster log--><g class="cluster" data-qualified-name="log" data-source-line="48" id="ent0013"><rect fill="#F8F8F8" height="99" rx="3" ry="3" style="stroke:#999999;stroke-width:1.5;" width="318" x="1024" y="228.45"/><text fill="#000000" font-family="sans-serif" font-size="14" font-weight="700" lengthAdjust="spacing" textLength="22.7295" x="1171.6353" y="243.9852">log</text></g><!--cluster witness--><g class="cluster" data-qualified-name="witness" data-source-line="53" id="ent0016"><rect fill="#F8F8F8" height="99" rx="3" ry="3" style="stroke:#999999;stroke-width:1.5;" width="426" x="1382" y="228.45"/><text fill="#000000" font-family="sans-serif" font-size="14" font-weight="700" lengthAdjust="spacing" textLength="55.5352" x="1567.2324" y="243.9852">witness</text></g><!--cluster crypto--><g class="cluster" data-qualified-name="crypto" data-source-line="58" id="ent0019"><rect fill="#F8F8F8" height="106.44" rx="3" ry="3" style="stroke:#999999;stroke-width:1.5;" width="514" x="828" y="367.45"/><text fill="#000000" font-family="sans-serif" font-size="14" font-weight="700" lengthAdjust="spacing" textLength="45.8691" x="1062.0654" y="382.9852">crypto</text></g><!--class DidWebVh--><g class="entity" data-qualified-name="api.DidWebVh" data-source-line="29" id="ent0002"><rect fill="#FFFFFF" height="39.4434" rx="3" ry="3" style="stroke:#555555;stroke-width:0.5;" width="96.7905" x="632.6" y="42"/><ellipse cx="647.6" cy="61.7217" fill="#ADD1B2" rx="11" ry="11" style="stroke:#181818;stroke-width:1;"/><path d="M650.0731,67.8647 Q649.4921,68.1636 648.8529,68.313 Q648.2138,68.4624 647.5082,68.4624 Q645.0014,68.4624 643.6815,66.8105 Q642.3617,65.1587 642.3617,62.0376 Q642.3617,58.9082 643.6815,57.2563 Q645.0014,55.6045 647.5082,55.6045 Q648.2138,55.6045 648.8612,55.7539 Q649.5087,55.9033 650.0731,56.2021 L650.0731,58.9248 Q649.4423,58.3438 648.8488,58.074 Q648.2553,57.8042 647.6244,57.8042 Q646.2797,57.8042 645.5949,58.8708 Q644.9101,59.9375 644.9101,62.0376 Q644.9101,64.1294 645.5949,65.196 Q646.2797,66.2627 647.6244,66.2627 Q648.2553,66.2627 648.8488,65.9929 Q649.4423,65.7231 650.0731,65.1421 Z " fill="#000000"/><text fill="#000000" font-family="sans-serif" font-size="12" font-style="italic" lengthAdjust="spacing" textLength="50.625" x="668.6828" y="58.6016">&#171;facade&#187;</text><text fill="#000000" font-family="sans-serif" font-size="13" lengthAdjust="spacing" textLength="64.7905" x="661.6" y="73.7012">DidWebVh</text></g><!--class CreateOperation--><g class="entity" data-qualified-name="operation.CreateOperation" data-source-line="33" id="ent0004"><rect fill="#FFFFFF" height="32" rx="3" ry="3" style="stroke:#555555;stroke-width:0.5;" width="135.5366" x="31.23" y="172.45"/><ellipse cx="46.23" cy="188.45" fill="#ADD1B2" rx="11" ry="11" style="stroke:#181818;stroke-width:1;"/><path d="M48.7031,194.5931 Q48.1221,194.8919 47.4829,195.0413 Q46.8438,195.1907 46.1382,195.1907 Q43.6314,195.1907 42.3115,193.5389 Q40.9917,191.887 40.9917,188.7659 Q40.9917,185.6365 42.3115,183.9847 Q43.6314,182.3328 46.1382,182.3328 Q46.8438,182.3328 47.4912,182.4822 Q48.1387,182.6316 48.7031,182.9305 L48.7031,185.6531 Q48.0723,185.0721 47.4788,184.8023 Q46.8853,184.5325 46.2544,184.5325 Q44.9097,184.5325 44.2249,185.5992 Q43.5401,186.6658 43.5401,188.7659 Q43.5401,190.8577 44.2249,191.9244 Q44.9097,192.991 46.2544,192.991 Q46.8853,192.991 47.4788,192.7212 Q48.0723,192.4515 48.7031,191.8704 Z " fill="#000000"/><text fill="#000000" font-family="sans-serif" font-size="13" lengthAdjust="spacing" textLength="103.5366" x="60.23" y="193.3631">CreateOperation</text></g><!--class UpdateOperation--><g class="entity" data-qualified-name="operation.UpdateOperation" data-source-line="34" id="ent0005"><rect fill="#FFFFFF" height="32" rx="3" ry="3" style="stroke:#555555;stroke-width:0.5;" width="139.3516" x="206.32" y="172.45"/><ellipse cx="221.32" cy="188.45" fill="#ADD1B2" rx="11" ry="11" style="stroke:#181818;stroke-width:1;"/><path d="M223.7931,194.5931 Q223.2121,194.8919 222.5729,195.0413 Q221.9338,195.1907 221.2282,195.1907 Q218.7214,195.1907 217.4015,193.5389 Q216.0817,191.887 216.0817,188.7659 Q216.0817,185.6365 217.4015,183.9847 Q218.7214,182.3328 221.2282,182.3328 Q221.9338,182.3328 222.5812,182.4822 Q223.2287,182.6316 223.7931,182.9305 L223.7931,185.6531 Q223.1623,185.0721 222.5688,184.8023 Q221.9753,184.5325 221.3444,184.5325 Q219.9997,184.5325 219.3149,185.5992 Q218.6301,186.6658 218.6301,188.7659 Q218.6301,190.8577 219.3149,191.9244 Q219.9997,192.991 221.3444,192.991 Q221.9753,192.991 222.5688,192.7212 Q223.1623,192.4515 223.7931,191.8704 Z " fill="#000000"/><text fill="#000000" font-family="sans-serif" font-size="13" lengthAdjust="spacing" textLength="107.3516" x="235.32" y="193.3631">UpdateOperation</text></g><!--class DeactivateOperation--><g class="entity" data-qualified-name="operation.DeactivateOperation" data-source-line="35" id="ent0006"><rect fill="#FFFFFF" height="32" rx="3" ry="3" style="stroke:#555555;stroke-width:0.5;" width="160.1465" x="30.93" y="271.45"/><ellipse cx="45.93" cy="287.45" fill="#ADD1B2" rx="11" ry="11" style="stroke:#181818;stroke-width:1;"/><path d="M48.4031,293.5931 Q47.8221,293.8919 47.1829,294.0413 Q46.5438,294.1907 45.8382,294.1907 Q43.3314,294.1907 42.0115,292.5389 Q40.6917,290.887 40.6917,287.7659 Q40.6917,284.6365 42.0115,282.9847 Q43.3314,281.3328 45.8382,281.3328 Q46.5438,281.3328 47.1912,281.4822 Q47.8387,281.6316 48.4031,281.9305 L48.4031,284.6531 Q47.7723,284.0721 47.1788,283.8023 Q46.5853,283.5325 45.9544,283.5325 Q44.6097,283.5325 43.9249,284.5992 Q43.2401,285.6658 43.2401,287.7659 Q43.2401,289.8577 43.9249,290.9244 Q44.6097,291.991 45.9544,291.991 Q46.5853,291.991 47.1788,291.7212 Q47.7723,291.4515 48.4031,290.8704 Z " fill="#000000"/><text fill="#000000" font-family="sans-serif" font-size="13" lengthAdjust="spacing" textLength="128.1465" x="59.93" y="292.3631">DeactivateOperation</text></g><!--class HttpResolver--><g class="entity" data-qualified-name="resolve.HttpResolver" data-source-line="39" id="ent0008"><rect fill="#FFFFFF" height="32" rx="3" ry="3" style="stroke:#555555;stroke-width:0.5;" width="112.5835" x="822.71" y="172.45"/><ellipse cx="837.71" cy="188.45" fill="#ADD1B2" rx="11" ry="11" style="stroke:#181818;stroke-width:1;"/><path d="M840.1831,194.5931 Q839.6021,194.8919 838.9629,195.0413 Q838.3238,195.1907 837.6182,195.1907 Q835.1114,195.1907 833.7915,193.5389 Q832.4717,191.887 832.4717,188.7659 Q832.4717,185.6365 833.7915,183.9847 Q835.1114,182.3328 837.6182,182.3328 Q838.3238,182.3328 838.9712,182.4822 Q839.6187,182.6316 840.1831,182.9305 L840.1831,185.6531 Q839.5523,185.0721 838.9588,184.8023 Q838.3653,184.5325 837.7344,184.5325 Q836.3897,184.5325 835.7049,185.5992 Q835.0201,186.6658 835.0201,188.7659 Q835.0201,190.8577 835.7049,191.9244 Q836.3897,192.991 837.7344,192.991 Q838.3653,192.991 838.9588,192.7212 Q839.5523,192.4515 840.1831,191.8704 Z " fill="#000000"/><text fill="#000000" font-family="sans-serif" font-size="13" lengthAdjust="spacing" textLength="80.5835" x="851.71" y="193.3631">HttpResolver</text></g><!--class LogBasedResolver--><g class="entity" data-qualified-name="resolve.LogBasedResolver" data-source-line="40" id="ent0009"><rect fill="#FFFFFF" height="32" rx="3" ry="3" style="stroke:#555555;stroke-width:0.5;" width="144.855" x="807.57" y="271.45"/><ellipse cx="822.57" cy="287.45" fill="#ADD1B2" rx="11" ry="11" style="stroke:#181818;stroke-width:1;"/><path d="M825.0431,293.5931 Q824.4621,293.8919 823.8229,294.0413 Q823.1838,294.1907 822.4782,294.1907 Q819.9714,294.1907 818.6515,292.5389 Q817.3317,290.887 817.3317,287.7659 Q817.3317,284.6365 818.6515,282.9847 Q819.9714,281.3328 822.4782,281.3328 Q823.1838,281.3328 823.8312,281.4822 Q824.4787,281.6316 825.0431,281.9305 L825.0431,284.6531 Q824.4123,284.0721 823.8188,283.8023 Q823.2253,283.5325 822.5944,283.5325 Q821.2497,283.5325 820.5649,284.5992 Q819.8801,285.6658 819.8801,287.7659 Q819.8801,289.8577 820.5649,290.9244 Q821.2497,291.991 822.5944,291.991 Q823.2253,291.991 823.8188,291.7212 Q824.4123,291.4515 825.0431,290.8704 Z " fill="#000000"/><text fill="#000000" font-family="sans-serif" font-size="13" lengthAdjust="spacing" textLength="112.855" x="836.57" y="292.3631">LogBasedResolver</text></g><!--class DidLog--><g class="entity" data-qualified-name="model.DidLog" data-source-line="44" id="ent0011"><rect fill="#FFFFFF" height="32" rx="3" ry="3" style="stroke:#555555;stroke-width:0.5;" width="76.7002" x="459.65" y="271.45"/><ellipse cx="474.65" cy="287.45" fill="#ADD1B2" rx="11" ry="11" style="stroke:#181818;stroke-width:1;"/><path d="M477.1231,293.5931 Q476.5421,293.8919 475.9029,294.0413 Q475.2638,294.1907 474.5582,294.1907 Q472.0514,294.1907 470.7315,292.5389 Q469.4117,290.887 469.4117,287.7659 Q469.4117,284.6365 470.7315,282.9847 Q472.0514,281.3328 474.5582,281.3328 Q475.2638,281.3328 475.9112,281.4822 Q476.5587,281.6316 477.1231,281.9305 L477.1231,284.6531 Q476.4923,284.0721 475.8988,283.8023 Q475.3053,283.5325 474.6744,283.5325 Q473.3297,283.5325 472.6449,284.5992 Q471.9601,285.6658 471.9601,287.7659 Q471.9601,289.8577 472.6449,290.9244 Q473.3297,291.991 474.6744,291.991 Q475.3053,291.991 475.8988,291.7212 Q476.4923,291.4515 477.1231,290.8704 Z " fill="#000000"/><text fill="#000000" font-family="sans-serif" font-size="13" lengthAdjust="spacing" textLength="44.7002" x="488.65" y="292.3631">DidLog</text></g><!--class DidDocument--><g class="entity" data-qualified-name="model.DidDocument" data-source-line="45" id="ent0012"><rect fill="#FFFFFF" height="32" rx="3" ry="3" style="stroke:#555555;stroke-width:0.5;" width="118.436" x="576.78" y="271.45"/><ellipse cx="591.78" cy="287.45" fill="#ADD1B2" rx="11" ry="11" style="stroke:#181818;stroke-width:1;"/><path d="M594.2531,293.5931 Q593.6721,293.8919 593.0329,294.0413 Q592.3938,294.1907 591.6882,294.1907 Q589.1814,294.1907 587.8615,292.5389 Q586.5417,290.887 586.5417,287.7659 Q586.5417,284.6365 587.8615,282.9847 Q589.1814,281.3328 591.6882,281.3328 Q592.3938,281.3328 593.0412,281.4822 Q593.6887,281.6316 594.2531,281.9305 L594.2531,284.6531 Q593.6223,284.0721 593.0288,283.8023 Q592.4353,283.5325 591.8044,283.5325 Q590.4597,283.5325 589.7749,284.5992 Q589.0901,285.6658 589.0901,287.7659 Q589.0901,289.8577 589.7749,290.9244 Q590.4597,291.991 591.8044,291.991 Q592.4353,291.991 593.0288,291.7212 Q593.6223,291.4515 594.2531,290.8704 Z " fill="#000000"/><text fill="#000000" font-family="sans-serif" font-size="13" lengthAdjust="spacing" textLength="86.436" x="605.78" y="292.3631">DidDocument</text></g><!--class LogParser--><g class="entity" data-qualified-name="log.LogParser" data-source-line="49" id="ent0014"><rect fill="#FFFFFF" height="32" rx="3" ry="3" style="stroke:#555555;stroke-width:0.5;" width="93.896" x="1048.05" y="271.45"/><ellipse cx="1063.05" cy="287.45" fill="#ADD1B2" rx="11" ry="11" style="stroke:#181818;stroke-width:1;"/><path d="M1065.5231,293.5931 Q1064.9421,293.8919 1064.3029,294.0413 Q1063.6638,294.1907 1062.9582,294.1907 Q1060.4514,294.1907 1059.1315,292.5389 Q1057.8117,290.887 1057.8117,287.7659 Q1057.8117,284.6365 1059.1315,282.9847 Q1060.4514,281.3328 1062.9582,281.3328 Q1063.6638,281.3328 1064.3112,281.4822 Q1064.9587,281.6316 1065.5231,281.9305 L1065.5231,284.6531 Q1064.8923,284.0721 1064.2988,283.8023 Q1063.7053,283.5325 1063.0744,283.5325 Q1061.7297,283.5325 1061.0449,284.5992 Q1060.3601,285.6658 1060.3601,287.7659 Q1060.3601,289.8577 1061.0449,290.9244 Q1061.7297,291.991 1063.0744,291.991 Q1063.7053,291.991 1064.2988,291.7212 Q1064.8923,291.4515 1065.5231,290.8704 Z " fill="#000000"/><text fill="#000000" font-family="sans-serif" font-size="13" lengthAdjust="spacing" textLength="61.896" x="1077.05" y="292.3631">LogParser</text></g><!--class LogValidator--><g class="entity" data-qualified-name="log.LogValidator" data-source-line="50" id="ent0015"><rect fill="#FFFFFF" height="32" rx="3" ry="3" style="stroke:#555555;stroke-width:0.5;" width="111.7456" x="1182.13" y="271.45"/><ellipse cx="1197.13" cy="287.45" fill="#ADD1B2" rx="11" ry="11" style="stroke:#181818;stroke-width:1;"/><path d="M1199.6031,293.5931 Q1199.0221,293.8919 1198.3829,294.0413 Q1197.7438,294.1907 1197.0382,294.1907 Q1194.5314,294.1907 1193.2115,292.5389 Q1191.8917,290.887 1191.8917,287.7659 Q1191.8917,284.6365 1193.2115,282.9847 Q1194.5314,281.3328 1197.0382,281.3328 Q1197.7438,281.3328 1198.3912,281.4822 Q1199.0387,281.6316 1199.6031,281.9305 L1199.6031,284.6531 Q1198.9723,284.0721 1198.3788,283.8023 Q1197.7853,283.5325 1197.1544,283.5325 Q1195.8097,283.5325 1195.1249,284.5992 Q1194.4401,285.6658 1194.4401,287.7659 Q1194.4401,289.8577 1195.1249,290.9244 Q1195.8097,291.991 1197.1544,291.991 Q1197.7853,291.991 1198.3788,291.7212 Q1198.9723,291.4515 1199.6031,290.8704 Z " fill="#000000"/><text fill="#000000" font-family="sans-serif" font-size="13" lengthAdjust="spacing" textLength="79.7456" x="1211.13" y="292.3631">LogValidator</text></g><!--class WitnessProofCollection--><g class="entity" data-qualified-name="witness.WitnessProofCollection" data-source-line="54" id="ent0017"><rect fill="#FFFFFF" height="32" rx="3" ry="3" style="stroke:#555555;stroke-width:0.5;" width="176.6313" x="1405.68" y="271.45"/><ellipse cx="1420.68" cy="287.45" fill="#ADD1B2" rx="11" ry="11" style="stroke:#181818;stroke-width:1;"/><path d="M1423.1531,293.5931 Q1422.5721,293.8919 1421.9329,294.0413 Q1421.2938,294.1907 1420.5882,294.1907 Q1418.0814,294.1907 1416.7615,292.5389 Q1415.4417,290.887 1415.4417,287.7659 Q1415.4417,284.6365 1416.7615,282.9847 Q1418.0814,281.3328 1420.5882,281.3328 Q1421.2938,281.3328 1421.9412,281.4822 Q1422.5887,281.6316 1423.1531,281.9305 L1423.1531,284.6531 Q1422.5223,284.0721 1421.9288,283.8023 Q1421.3353,283.5325 1420.7044,283.5325 Q1419.3597,283.5325 1418.6749,284.5992 Q1417.9901,285.6658 1417.9901,287.7659 Q1417.9901,289.8577 1418.6749,290.9244 Q1419.3597,291.991 1420.7044,291.991 Q1421.3353,291.991 1421.9288,291.7212 Q1422.5223,291.4515 1423.1531,290.8704 Z " fill="#000000"/><text fill="#000000" font-family="sans-serif" font-size="13" lengthAdjust="spacing" textLength="144.6313" x="1434.68" y="292.3631">WitnessProofCollection</text></g><!--class WitnessValidator--><g class="entity" data-qualified-name="witness.WitnessValidator" data-source-line="55" id="ent0018"><rect fill="#FFFFFF" height="32" rx="3" ry="3" style="stroke:#555555;stroke-width:0.5;" width="137.0283" x="1622.49" y="271.45"/><ellipse cx="1637.49" cy="287.45" fill="#ADD1B2" rx="11" ry="11" style="stroke:#181818;stroke-width:1;"/><path d="M1639.9631,293.5931 Q1639.3821,293.8919 1638.7429,294.0413 Q1638.1038,294.1907 1637.3982,294.1907 Q1634.8914,294.1907 1633.5715,292.5389 Q1632.2517,290.887 1632.2517,287.7659 Q1632.2517,284.6365 1633.5715,282.9847 Q1634.8914,281.3328 1637.3982,281.3328 Q1638.1038,281.3328 1638.7512,281.4822 Q1639.3987,281.6316 1639.9631,281.9305 L1639.9631,284.6531 Q1639.3323,284.0721 1638.7388,283.8023 Q1638.1453,283.5325 1637.5144,283.5325 Q1636.1697,283.5325 1635.4849,284.5992 Q1634.8001,285.6658 1634.8001,287.7659 Q1634.8001,289.8577 1635.4849,290.9244 Q1636.1697,291.991 1637.5144,291.991 Q1638.1453,291.991 1638.7388,291.7212 Q1639.3323,291.4515 1639.9631,290.8704 Z " fill="#000000"/><text fill="#000000" font-family="sans-serif" font-size="13" lengthAdjust="spacing" textLength="105.0283" x="1651.49" y="292.3631">WitnessValidator</text></g><!--class DataIntegrity--><g class="entity" data-qualified-name="crypto.DataIntegrity" data-source-line="59" id="ent0020"><rect fill="#FFFFFF" height="32" rx="3" ry="3" style="stroke:#555555;stroke-width:0.5;" width="113.7134" x="852.14" y="414.17"/><ellipse cx="867.14" cy="430.17" fill="#ADD1B2" rx="11" ry="11" style="stroke:#181818;stroke-width:1;"/><path d="M869.6131,436.3131 Q869.0321,436.6119 868.3929,436.7613 Q867.7538,436.9107 867.0482,436.9107 Q864.5414,436.9107 863.2215,435.2589 Q861.9017,433.607 861.9017,430.4859 Q861.9017,427.3565 863.2215,425.7047 Q864.5414,424.0528 867.0482,424.0528 Q867.7538,424.0528 868.4012,424.2022 Q869.0487,424.3516 869.6131,424.6505 L869.6131,427.3731 Q868.9823,426.7921 868.3888,426.5223 Q867.7953,426.2525 867.1644,426.2525 Q865.8197,426.2525 865.1349,427.3192 Q864.4501,428.3858 864.4501,430.4859 Q864.4501,432.5777 865.1349,433.6444 Q865.8197,434.711 867.1644,434.711 Q867.7953,434.711 868.3888,434.4412 Q868.9823,434.1715 869.6131,433.5904 Z " fill="#000000"/><text fill="#000000" font-family="sans-serif" font-size="13" lengthAdjust="spacing" textLength="81.7134" x="881.14" y="435.0831">DataIntegrity</text></g><!--class Signer--><g class="entity" data-qualified-name="crypto.Signer" data-source-line="60" id="ent0021"><rect fill="#FFF4C2" height="39.4434" rx="3" ry="3" style="stroke:#555555;stroke-width:0.5;" width="124.2461" x="1005.88" y="410.45"/><ellipse cx="1020.88" cy="430.1717" fill="#B4A7E5" rx="11" ry="11" style="stroke:#181818;stroke-width:1;"/><path d="M1017.3077,426.4368 L1017.3077,424.2786 L1024.6871,424.2786 L1024.6871,426.4368 L1022.2218,426.4368 L1022.2218,434.5135 L1024.6871,434.5135 L1024.6871,436.6717 L1017.3077,436.6717 L1017.3077,434.5135 L1019.7731,434.5135 L1019.7731,426.4368 Z " fill="#000000"/><text fill="#000000" font-family="sans-serif" font-size="12" font-style="italic" lengthAdjust="spacing" textLength="96.2461" x="1032.88" y="427.0516">&#171;host-provided&#187;</text><text fill="#000000" font-family="sans-serif" font-size="13" font-style="italic" lengthAdjust="spacing" textLength="39.4951" x="1061.2555" y="442.1512">Signer</text></g><!--class Verifier--><g class="entity" data-qualified-name="crypto.Verifier" data-source-line="61" id="ent0022"><rect fill="#FFF4C2" height="39.4434" rx="3" ry="3" style="stroke:#555555;stroke-width:0.5;" width="124.2461" x="1169.88" y="410.45"/><ellipse cx="1184.88" cy="430.1717" fill="#B4A7E5" rx="11" ry="11" style="stroke:#181818;stroke-width:1;"/><path d="M1181.3077,426.4368 L1181.3077,424.2786 L1188.6871,424.2786 L1188.6871,426.4368 L1186.2218,426.4368 L1186.2218,434.5135 L1188.6871,434.5135 L1188.6871,436.6717 L1181.3077,436.6717 L1181.3077,434.5135 L1183.7731,434.5135 L1183.7731,426.4368 Z " fill="#000000"/><text fill="#000000" font-family="sans-serif" font-size="12" font-style="italic" lengthAdjust="spacing" textLength="96.2461" x="1196.88" y="427.0516">&#171;host-provided&#187;</text><text fill="#000000" font-family="sans-serif" font-size="13" font-style="italic" lengthAdjust="spacing" textLength="45.9189" x="1222.0436" y="442.1512">Verifier</text></g><g class="entity" data-qualified-name="GMN33" data-source-line="83" id="ent0034"><path d="M919.7,510.54 L919.7,545.1611 A3,3 0 0 0 922.7,548.1611 L1127.2981,548.1611 A3,3 0 0 0 1130.2981,545.1611 L1130.2981,517.54 L1120.2981,507.54 L1072,507.54 L1068,449.94 L1064,507.54 L922.7,507.54 A3,3 0 0 0 919.7,510.54" fill="#FFF9E3" style="stroke:#D8C971;stroke-width:0.5;"/><path d="M1120.2981,507.54 L1120.2981,516.04 A1.5,1.5 0 0 0 1121.7981,517.54 L1130.2981,517.54 L1120.2981,507.54" fill="#FFF9E3" style="stroke:#D8C971;stroke-width:0.5;"/><text fill="#000000" font-family="sans-serif" font-size="13" lengthAdjust="spacing" textLength="189.5981" x="925.7" y="525.1084">Implemented by the host app:</text><text fill="#000000" font-family="sans-serif" font-size="13" lengthAdjust="spacing" textLength="159.999" x="925.7" y="540.4189">wraps its own private key</text></g><g class="entity" data-qualified-name="GMN36" data-source-line="88" id="ent0037"><path d="M1170.76,502.89 L1170.76,552.8216 A3,3 0 0 0 1173.76,555.8216 L1374.2449,555.8216 A3,3 0 0 0 1377.2449,552.8216 L1377.2449,509.89 L1367.2449,499.89 L1236.44,499.89 L1232.44,449.94 L1228.44,499.89 L1173.76,499.89 A3,3 0 0 0 1170.76,502.89" fill="#FFF9E3" style="stroke:#D8C971;stroke-width:0.5;"/><path d="M1367.2449,499.89 L1367.2449,508.39 A1.5,1.5 0 0 0 1368.7449,509.89 L1377.2449,509.89 L1367.2449,499.89" fill="#FFF9E3" style="stroke:#D8C971;stroke-width:0.5;"/><text fill="#000000" font-family="sans-serif" font-size="13" lengthAdjust="spacing" textLength="185.4849" x="1176.76" y="517.4584">Implemented by the host app</text><text fill="#000000" font-family="sans-serif" font-size="13" lengthAdjust="spacing" textLength="169.9395" x="1176.76" y="532.7689">(or use the built-in did:key</text><text fill="#000000" font-family="sans-serif" font-size="13" lengthAdjust="spacing" textLength="95.7734" x="1176.76" y="548.0795">DefaultVerifier)</text></g><!--link DidWebVh to operation--><g class="link" data-entity-1="ent0002" data-entity-2="ent0003" data-link-type="dependency" data-source-line="65" id="lnk23"><path codeLine="65" d="M632.29,61.82 C548.5,61.82 386,61.82 386,61.82 C386,61.82 386,90.5775 386,120.6838 C386,122.5654 386,124.4523 386,126.3378 C386,127.2805 386,123.2229 386,124.1641" fill="none" id="DidWebVh-to-operation" style="stroke:#555555;stroke-width:1;"/><polygon fill="#555555" points="386,129.1641,390,120.1641,386,124.1641,382,120.1641,386,129.1641" style="stroke:#555555;stroke-width:1;stroke-linejoin:miter;stroke-miterlimit:10;"/></g><!--link DidWebVh to resolve--><g class="link" data-entity-1="ent0002" data-entity-2="ent0007" data-link-type="dependency" data-source-line="66" id="lnk24"><path codeLine="66" d="M729.71,61.82 C813.5,61.82 976,61.82 976,61.82 C976,61.82 976,90.5775 976,120.6838 C976,122.5654 976,124.4523 976,126.3378 C976,127.2805 976,123.2229 976,124.1641" fill="none" id="DidWebVh-to-resolve" style="stroke:#555555;stroke-width:1;"/><polygon fill="#555555" points="976,129.1641,980,120.1641,976,124.1641,972,120.1641,976,129.1641" style="stroke:#555555;stroke-width:1;stroke-linejoin:miter;stroke-miterlimit:10;"/></g><!--link operation to model--><g class="link" data-entity-1="ent0003" data-entity-2="ent0010" data-link-type="dependency" data-source-line="69" id="lnk25"><path codeLine="69" d="M394.4315,188.82 C394.6474,188.82 394.8671,188.82 395.0906,188.82 C395.9847,188.82 396.9397,188.82 397.9531,188.82 C399.98,188.82 402.2409,188.82 404.7173,188.82 C414.6227,188.82 427.9754,188.82 443.5883,188.82 C474.8141,188.82 515.0806,188.82 554.8912,188.82 C634.5125,188.82 712.31,188.82 712.31,188.82 C712.31,188.82 712.31,195.0075 712.31,204.2888 C712.31,208.9294 712.31,214.3434 712.31,220.1442 C712.31,221.5944 712.31,223.0688 712.31,224.5613 C712.31,225.3075 712.31,226.0583 712.31,226.8129 C712.31,227.1901 712.31,222.5684 712.31,222.9474" fill="none" id="operation-to-model" style="stroke:#555555;stroke-width:1;"/><polygon fill="#555555" points="712.31,227.9474,716.31,218.9474,712.31,222.9474,708.31,218.9474,712.31,227.9474" style="stroke:#555555;stroke-width:1;stroke-linejoin:miter;stroke-miterlimit:10;"/><text fill="#000000" font-family="sans-serif" font-size="13" lengthAdjust="spacing" textLength="86.8042" x="523.47" y="185.3884">builds / signs</text></g><!--link operation to crypto--><g class="link" data-entity-1="ent0003" data-entity-2="ent0019" data-link-type="dependency" data-source-line="70" id="lnk26"><path codeLine="70" d="M386,328.5904 C386,329.6739 386,330.7576 386,331.8413 C386,334.0087 386,336.176 386,338.3413 C386,407.63 386,474.82 386,474.82 C386,474.82 1334,474.82 1334,474.82 C1334,474.82 1334,474.6718 1334,474.3924 C1334,474.3225 1334,474.2445 1334,474.1585 C1334,474.1155 1334,474.0705 1334,474.0236 C1334,474.0001 1334,478.9762 1334,478.9518" fill="none" id="operation-to-crypto" style="stroke:#555555;stroke-width:1;"/><polygon fill="#555555" points="1334,473.9518,1330,482.9518,1334,478.9518,1338,482.9518,1334,473.9518" style="stroke:#555555;stroke-width:1;stroke-linejoin:miter;stroke-miterlimit:10;"/><text fill="#000000" font-family="sans-serif" font-size="13" lengthAdjust="spacing" textLength="157.5869" x="581.16" y="471.3884">DataIntegrity.createProof</text></g><!--link resolve to log--><g class="link" data-entity-1="ent0007" data-entity-2="ent0013" data-link-type="dependency" data-source-line="73" id="lnk27"><path codeLine="73" d="M984.5497,188.82 C985.0064,188.82 985.4802,188.82 985.9706,188.82 C986.9515,188.82 987.9991,188.82 989.111,188.82 C991.3346,188.82 993.8149,188.82 996.5316,188.82 C1007.3986,188.82 1022.0478,188.82 1039.1769,188.82 C1073.435,188.82 1117.6125,188.82 1161.29,188.82 C1248.645,188.82 1334,188.82 1334,188.82 C1334,188.82 1334,194.42 1334,202.9513 C1334,207.2169 1334,212.2153 1334,217.613 C1334,220.3118 1334,223.1104 1334,225.9672 C1334,226.6814 1334,222.3992 1334,223.12" fill="none" id="resolve-to-log" style="stroke:#555555;stroke-width:1;"/><polygon fill="#555555" points="1334,228.12,1338,219.12,1334,223.12,1330,219.12,1334,228.12" style="stroke:#555555;stroke-width:1;stroke-linejoin:miter;stroke-miterlimit:10;"/><text fill="#000000" font-family="sans-serif" font-size="13" lengthAdjust="spacing" textLength="125.9629" x="1078.29" y="185.3884">parse + validate log</text></g><!--link resolve to witness--><g class="link" data-entity-1="ent0007" data-entity-2="ent0016" data-link-type="dependency" data-source-line="74" id="lnk28"><path codeLine="74" d="M984.8287,226.82 C986.6958,226.82 988.7338,226.82 990.9363,226.82 C995.3414,226.82 1000.4047,226.82 1006.0756,226.82 C1028.7591,226.82 1061.1642,226.82 1100.0503,226.82 C1177.8225,226.82 1281.5188,226.82 1385.215,226.82 C1592.6075,226.82 1800,226.82 1800,226.82 C1800,226.82 1800,227.0281 1800,227.42 C1800,227.6159 1800,227.8578 1800,228.1425 C1800,228.2137 1800,223.2876 1800,223.3641" fill="none" id="resolve-to-witness" style="stroke:#555555;stroke-width:1;"/><polygon fill="#555555" points="1800,228.3641,1804,219.3641,1800,223.3641,1796,219.3641,1800,228.3641" style="stroke:#555555;stroke-width:1;stroke-linejoin:miter;stroke-miterlimit:10;"/><text fill="#000000" font-family="sans-serif" font-size="13" lengthAdjust="spacing" textLength="146.9927" x="1246.66" y="223.3884">parse + validate proofs</text></g><!--link resolve to model--><g class="link" data-entity-1="ent0007" data-entity-2="ent0010" data-link-type="dependency" data-source-line="75" id="lnk29"><path codeLine="75" d="M783.4163,248.82 C783.0341,248.82 782.6534,248.82 782.2744,248.82 C779.2422,248.82 776.3125,248.82 773.5,248.82 C762.25,248.82 752.875,248.82 746.3125,248.82 C745.9023,248.82 745.5032,248.82 745.1152,248.82 C744.9212,248.82 744.7301,248.82 744.5417,248.82 C744.4476,248.82 744.3541,248.82 744.2613,248.82 C744.215,248.82 749.1688,248.82 749.1228,248.82" fill="none" id="resolve-to-model" style="stroke:#555555;stroke-width:1;"/><polygon fill="#555555" points="744.1228,248.82,753.1228,252.82,749.1228,248.82,753.1228,244.82,744.1228,248.82" style="stroke:#555555;stroke-width:1;stroke-linejoin:miter;stroke-miterlimit:10;"/></g><!--link HttpResolver to LogBasedResolver--><g class="link" data-entity-1="ent0008" data-entity-2="ent0009" data-link-type="dependency" data-source-line="76" id="lnk30"><path codeLine="76" d="M879,204.79 C879,223.14 879,247.72 879,266.07" fill="none" id="HttpResolver-to-LogBasedResolver" style="stroke:#555555;stroke-width:1;"/><polygon fill="#555555" points="879,271.07,883,262.07,879,266.07,875,262.07,879,271.07" style="stroke:#555555;stroke-width:1;stroke-linejoin:miter;stroke-miterlimit:10;"/><text fill="#000000" font-family="sans-serif" font-size="13" lengthAdjust="spacing" textLength="129.6636" x="749" y="234.4984">delegates after fetch</text></g><!--link log to crypto--><g class="link" data-entity-1="ent0013" data-entity-2="ent0019" data-link-type="dependency" data-source-line="79" id="lnk31"><path codeLine="79" d="M1334,327.7175 C1334,327.95 1334,328.183 1334,328.4165 C1334,330.2846 1334,332.1868 1334,334.1166 C1334,341.8355 1334,349.9941 1334,358.1638 C1334,360.2062 1334,362.2493 1334,364.2864 C1334,365.305 1334,361.322 1334,362.3368" fill="none" id="log-to-crypto" style="stroke:#555555;stroke-width:1;"/><polygon fill="#555555" points="1334,367.3368,1338,358.3368,1334,362.3368,1330,358.3368,1334,367.3368" style="stroke:#555555;stroke-width:1;stroke-linejoin:miter;stroke-miterlimit:10;"/><text fill="#000000" font-family="sans-serif" font-size="13" lengthAdjust="spacing" textLength="153.7021" x="1180" y="355.2684">DataIntegrity.verifyProof</text></g><!--link witness to crypto--><g class="link" data-entity-1="ent0016" data-entity-2="ent0019" data-link-type="dependency" data-source-line="80" id="lnk32"><path codeLine="80" d="M1800,327.6787 C1800,327.9221 1800,328.166 1800,328.4106 C1800,329.3888 1800,330.3763 1800,331.3722 C1800,333.364 1800,335.3894 1800,337.4406 C1800,345.6454 1800,354.2634 1800,362.8013 C1800,396.9525 1800,429.82 1800,429.82 C1800,429.82 1688.8975,429.82 1575.1913,429.82 C1518.3381,429.82 1460.8341,429.82 1416.2414,429.82 C1393.9451,429.82 1374.8766,429.82 1360.7313,429.82 C1353.6586,429.82 1347.8167,429.82 1343.4175,429.82 C1343.1426,429.82 1347.8733,429.82 1347.6097,429.82" fill="none" id="witness-to-crypto" style="stroke:#555555;stroke-width:1;"/><polygon fill="#555555" points="1342.6097,429.82,1351.6097,433.82,1347.6097,429.82,1351.6097,425.82,1342.6097,429.82" style="stroke:#555555;stroke-width:1;stroke-linejoin:miter;stroke-miterlimit:10;"/><text fill="#000000" font-family="sans-serif" font-size="13" lengthAdjust="spacing" textLength="153.7021" x="1484.25" y="426.3884">DataIntegrity.verifyProof</text></g><?plantuml-src ZLJVRzCm47xFNt5Y3u1GOMCRR5LLQMkPc8J4nCJsxCQNn6fYM_QrLK3yxvoTj7EwCf4ynFdkxhkVlaf916mijT1Wiq3dCxzKsWed6l2La6QZT0c5g3qc4cTMMkR6QNJmAS7pMdX_HUJKOaLucnjzhtuX72SgLkHBKU8zjJM2mvo4BkkKkrOQgRK8nb5b4e4s4ZrQE4lfdD3B09uVP_jnmEyCu9hTbJ7ScQcDWyTA4GRSE8ckmuxEuyFebNDcim_U64qnZPFJxC_pJ0wwERgv2E--eylu33ZFjd-n80jJou4JRUXV7cvkBh-SxdkONymkFvymHRODxvMmwXK83_oDJ5rnvae-ukAXWica4BcGE9qEh8n59qWP7MrtVmd3pA4W_BwLxF2VLXx4voXoKkk1BFNeq9jwZT5VVqwyVIMoFphKxS1lfhmM7kLEaF8rF2zrP8kdOUvicVxEJRvgKDE0e3PbDETlOioMTyBvOHGFebQSjHb6i56aqVj8qfyJeiSEkNF65Dozckz2MgvUV9WvTwqb4ucxOvgT876h2Kkdg6LKyTbnZn7kLHbkx6HI6KyZwyoQhx-SJkCmdSq-3fGVqAb2lQZE4Rs6qGYw0GAfl1MKLmnbk_4QZQPFqpE4-oRt91iE5_bIKRH_6hYWsJLm38kLggM73-0v4x-dr1TYF2p0-poEQQnoxua1kNEqdRJ041ezPWbt5zx1kgiy1dYWjctb0LKRtFY1TemzIyStmlkZosoiXoMpy5Kjk0jG81UpZxbFJdcW2iDcTYXX7LkKToNWTHmSPY695yeHRTgk7Dj4_bCzYyjeOOXC0wRenuc7vhQnDORhmp4jsXXX61dUE7RCueqJreCYNYCRpIMAEm2Ms6QePTnmpwYtm_SoEKlVyD9RSGy27AQ3Hahp8Cfne0VUEOLOrRIbU_layIy0?></g></svg>