<svg xmlns="http://www.w3.org/2000/svg" xmlns:xlink="http://www.w3.org/1999/xlink" contentStyleType="text/css" data-diagram-type="DESCRIPTION" height="415px" preserveAspectRatio="none" style="width:629px;height:415px;background:#FFFFFF;" version="1.1" viewBox="0 0 629 415" width="629px" zoomAndPan="magnify"><?plantuml 1.2026.6?><defs/><g><!--cluster library--><g class="cluster" data-qualified-name="library" data-source-line="41" id="ent0001"><path d="M9,6 L56.5029,6 A4.5,4.5 0 0 1 59.5029,9 L66.5029,28.4883 L289,28.4883 A3,3 0 0 1 292,31.4883 L292,397.24 A3,3 0 0 1 289,400.24 L9,400.24 A3,3 0 0 1 6,397.24 L6,9 A3,3 0 0 1 9,6" fill="none" style="stroke:#999999;stroke-width:1.5;stroke-dasharray:1,1;"/><line style="stroke:#999999;stroke-width:1.5;stroke-dasharray:1,1;" x1="6" x2="66.5029" y1="28.4883" y2="28.4883"/><text fill="#444444" font-family="'DejaVu Sans Mono'" font-size="14" font-weight="700" lengthAdjust="spacing" textLength="47.5029" x="10" y="21.5352">library</text></g><!--cluster base--><g class="cluster" data-qualified-name="library.base" data-source-line="57" id="ent0008"><rect fill="none" height="101.31" style="stroke:#444444;stroke-width:1;" width="202" x="58" y="266.93"/><text fill="#000000" font-family="'DejaVu Sans Mono'" font-size="13" font-weight="700" lengthAdjust="spacing" textLength="4.2847" x="156.8577" y="281.4984">&#160;</text></g><!--cluster host--><g class="cluster" data-qualified-name="host" data-source-line="63" id="ent0011"><path d="M319,14 L350.7256,14 A4.5,4.5 0 0 1 353.7256,17 L360.7256,36.4883 L611,36.4883 A3,3 0 0 1 614,39.4883 L614,97.31 A3,3 0 0 1 611,100.31 L319,100.31 A3,3 0 0 1 316,97.31 L316,17 A3,3 0 0 1 319,14" fill="none" style="stroke:#999999;stroke-width:1.5;stroke-dasharray:1,1;"/><line style="stroke:#999999;stroke-width:1.5;stroke-dasharray:1,1;" x1="316" x2="360.7256" y1="36.4883" y2="36.4883"/><text fill="#444444" font-family="'DejaVu Sans Mono'" font-size="14" font-weight="700" lengthAdjust="spacing" textLength="31.7256" x="320" y="29.5352">host</text></g><!--entity api--><g class="entity" data-qualified-name="library.api" data-source-line="43" id="ent0002"><rect fill="#FFFFFF" height="35.3105" rx="3" ry="3" style="stroke:#444444;stroke-width:0.5;" width="39.1191" x="58.44" y="49"/><text fill="#000000" font-family="'DejaVu Sans Mono'" font-size="13" lengthAdjust="spacing" textLength="19.1191" x="68.44" y="71.5684">api</text></g><!--entity didweb--><g class="entity" data-qualified-name="library.didweb" data-source-line="44" id="ent0003"><rect fill="#FFFFFF" height="35.3105" rx="3" ry="3" style="stroke:#444444;stroke-width:0.5;" width="65.5635" x="122.22" y="49"/><text fill="#000000" font-family="'DejaVu Sans Mono'" font-size="13" lengthAdjust="spacing" textLength="45.5635" x="132.22" y="71.5684">didweb</text></g><!--entity resolve--><g class="entity" data-qualified-name="library.resolve" data-source-line="47" id="ent0004"><rect fill="#FFFFFF" height="35.3105" rx="3" ry="3" style="stroke:#444444;stroke-width:0.5;" width="64.9033" x="122.55" y="124.31"/><text fill="#000000" font-family="'DejaVu Sans Mono'" font-size="13" lengthAdjust="spacing" textLength="44.9033" x="132.55" y="146.8784">resolve</text></g><!--entity operation--><g class="entity" data-qualified-name="library.operation" data-source-line="50" id="ent0005"><rect fill="#FFFFFF" height="35.3105" rx="3" ry="3" style="stroke:#444444;stroke-width:0.5;" width="80.582" x="29.71" y="199.62"/><text fill="#000000" font-family="'DejaVu Sans Mono'" font-size="13" lengthAdjust="spacing" textLength="60.582" x="39.71" y="222.1884">operation</text></g><!--entity log--><g class="entity" data-qualified-name="library.log" data-source-line="51" id="ent0006"><rect fill="#FFFFFF" height="35.3105" rx="3" ry="3" style="stroke:#444444;stroke-width:0.5;" width="39.8491" x="135.08" y="199.62"/><text fill="#000000" font-family="'DejaVu Sans Mono'" font-size="13" lengthAdjust="spacing" textLength="19.8491" x="145.08" y="222.1884">log</text></g><!--entity witness--><g class="entity" data-qualified-name="library.witness" data-source-line="52" id="ent0007"><rect fill="#FFFFFF" height="35.3105" rx="3" ry="3" style="stroke:#444444;stroke-width:0.5;" width="67.2012" x="200.4" y="199.62"/><text fill="#000000" font-family="'DejaVu Sans Mono'" font-size="13" lengthAdjust="spacing" textLength="47.2012" x="210.4" y="222.1884">witness</text></g><!--entity model--><g class="entity" data-qualified-name="library.base.model" data-source-line="58" id="ent0009"><rect fill="#FFFFFF" height="35.3105" rx="3" ry="3" style="stroke:#444444;stroke-width:0.5;" width="59.3047" x="91.35" y="308.93"/><text fill="#000000" font-family="'DejaVu Sans Mono'" font-size="13" lengthAdjust="spacing" textLength="39.3047" x="101.35" y="331.4984">model</text></g><!--entity crypto--><g class="entity" data-qualified-name="library.base.crypto" data-source-line="59" id="ent0010"><rect fill="#FFFFFF" height="35.3105" rx="3" ry="3" style="stroke:#444444;stroke-width:0.5;" width="59.7998" x="176.1" y="308.93"/><text fill="#000000" font-family="'DejaVu Sans Mono'" font-size="13" lengthAdjust="spacing" textLength="39.7998" x="186.1" y="331.4984">crypto</text></g><!--entity fetcher--><g class="entity" data-qualified-name="host.fetcher" data-source-line="64" id="ent0012"><rect fill="#FFFFFF" height="35.3105" rx="3" ry="3" style="stroke:#444444;stroke-width:1;stroke-dasharray:7,7;" width="89.3862" x="332.31" y="49"/><text fill="#000000" font-family="'DejaVu Sans Mono'" font-size="13" lengthAdjust="spacing" textLength="69.3862" x="342.31" y="71.5684">LogFetcher</text></g><!--entity verifier--><g class="entity" data-qualified-name="host.verifier" data-source-line="65" id="ent0013"><rect fill="#FFFFFF" height="35.3105" rx="3" ry="3" style="stroke:#444444;stroke-width:1;stroke-dasharray:7,7;" width="65.9189" x="447.04" y="49"/><text fill="#000000" font-family="'DejaVu Sans Mono'" font-size="13" lengthAdjust="spacing" textLength="45.9189" x="457.04" y="71.5684">Verifier</text></g><!--entity signer--><g class="entity" data-qualified-name="host.signer" data-source-line="66" id="ent0014"><rect fill="#FFFFFF" height="35.3105" rx="3" ry="3" style="stroke:#444444;stroke-width:1;stroke-dasharray:7,7;" width="59.4951" x="538.25" y="49"/><text fill="#000000" font-family="'DejaVu Sans Mono'" font-size="13" lengthAdjust="spacing" textLength="39.4951" x="548.25" y="71.5684">Signer</text></g><!--link api to operation--><g class="link" data-entity-1="ent0002" data-entity-2="ent0005" data-link-type="dependency" data-source-line="69" id="lnk15"><path d="M71.48,84.52 C71.48,113.51 71.48,165.45 71.48,194.43" fill="none" id="api-to-operation" style="stroke:#444444;stroke-width:1;"/><polygon fill="#444444" points="71.48,199.43,75.48,190.43,71.48,194.43,67.48,190.43,71.48,199.43" style="stroke:#444444;stroke-width:1;stroke-linejoin:miter;stroke-miterlimit:10;"/></g><!--link api to resolve--><g class="link" data-entity-1="ent0002" data-entity-2="ent0004" data-link-type="dependency" data-source-line="70" id="lnk16"><path d="M84.52,84.57 C84.52,106.92 84.52,142.24 84.52,142.24 C84.52,142.24 98.83,142.24 117.24,142.24" fill="none" id="api-to-resolve" style="stroke:#444444;stroke-width:1;"/><polygon fill="#444444" points="122.24,142.24,113.24,138.24,117.24,142.24,113.24,146.24,122.24,142.24" style="stroke:#444444;stroke-width:1;stroke-linejoin:miter;stroke-miterlimit:10;"/></g><!--link didweb to resolve--><g class="link" data-entity-1="ent0003" data-entity-2="ent0004" data-link-type="dependency" data-source-line="71" id="lnk17"><path d="M155,84.5 C155,96.42 155,107.04 155,118.98" fill="none" id="didweb-to-resolve" style="stroke:#444444;stroke-width:1;"/><polygon fill="#444444" points="155,123.98,159,114.98,155,118.98,151,114.98,155,123.98" style="stroke:#444444;stroke-width:1;stroke-linejoin:miter;stroke-miterlimit:10;"/></g><!--link resolve to operation--><!--link resolve to log--><g class="link" data-entity-1="ent0004" data-entity-2="ent0006" data-link-type="dependency" data-source-line="74" id="lnk19"><path d="M155,159.81 C155,171.73 155,182.35 155,194.29" fill="none" id="resolve-to-log" style="stroke:#444444;stroke-width:1;"/><polygon fill="#444444" points="155,199.29,159,190.29,155,194.29,151,190.29,155,199.29" style="stroke:#444444;stroke-width:1;stroke-linejoin:miter;stroke-miterlimit:10;"/></g><!--link resolve to witness--><g class="link" data-entity-1="ent0004" data-entity-2="ent0007" data-link-type="dependency" data-source-line="75" id="lnk20"><path d="M181.78,159.8 C181.78,182.06 181.78,217.24 181.78,217.24 C181.78,217.24 185.07,217.24 195.04,217.24" fill="none" id="resolve-to-witness" style="stroke:#444444;stroke-width:1;"/><polygon fill="#444444" points="200.04,217.24,191.04,213.24,195.04,217.24,191.04,221.24,200.04,217.24" style="stroke:#444444;stroke-width:1;stroke-linejoin:miter;stroke-miterlimit:10;"/></g><!--link witness to base--><g class="link" data-entity-1="ent0007" data-entity-2="ent0008" data-link-type="dependency" data-source-line="84" id="lnk21"><path d="M218.15,235.27 C218.15,243.285 218.15,252.5275 218.15,259.7663 C218.15,261.5759 218.15,263.2604 218.15,264.7691 C218.15,265.5235 218.15,261.2339 218.15,261.8941" fill="none" id="witness-to-base" style="stroke:#444444;stroke-width:1;"/><polygon fill="#444444" points="218.15,266.8941,222.15,257.8941,218.15,261.8941,214.15,257.8941,218.15,266.8941" style="stroke:#444444;stroke-width:1;stroke-linejoin:miter;stroke-miterlimit:10;"/></g><!--link log to base--><g class="link" data-entity-1="ent0006" data-entity-2="ent0008" data-link-type="dependency" data-source-line="85" id="lnk22"><path d="M162.79,235.34 C162.79,240.1975 162.79,245.8234 162.79,251.9498 C162.79,255.013 162.79,258.2013 162.79,261.4812 C162.79,263.1211 162.79,259.784 162.79,261.4655" fill="none" id="log-to-base" style="stroke:#444444;stroke-width:1;"/><polygon fill="#444444" points="162.79,266.4655,166.79,257.4655,162.79,261.4655,158.79,257.4655,162.79,266.4655" style="stroke:#444444;stroke-width:1;stroke-linejoin:miter;stroke-miterlimit:10;"/></g><!--link operation to base--><g class="link" data-entity-1="ent0005" data-entity-2="ent0008" data-link-type="dependency" data-source-line="86" id="lnk23"><path d="M66,235.32 C66,242.5975 66,251.4769 66,260.8075 C66,261.9738 66,263.1472 66,264.3254 C66,264.9145 66,265.5048 66,266.096 C66,266.2438 66,261.3916 66,261.5396" fill="none" id="operation-to-base" style="stroke:#444444;stroke-width:1;"/><polygon fill="#444444" points="66,266.5396,70,257.5396,66,261.5396,62,257.5396,66,266.5396" style="stroke:#444444;stroke-width:1;stroke-linejoin:miter;stroke-miterlimit:10;"/></g><!--link fetcher to resolve--><g class="link" data-entity-1="ent0012" data-entity-2="ent0004" data-link-type="dependency" data-source-line="88" id="lnk24"><path d="M377,84.57 C377,106.92 377,142.24 377,142.24 C377,142.24 254.51,142.24 192.76,142.24" fill="none" id="fetcher-to-resolve" style="stroke:#444444;stroke-width:1;stroke-dasharray:7,7;"/><polygon fill="#444444" points="187.76,142.24,196.76,146.24,192.76,142.24,196.76,138.24,187.76,142.24" style="stroke:#444444;stroke-width:1;stroke-linejoin:miter;stroke-miterlimit:10;"/></g><!--link verifier to crypto--><g class="link" data-entity-1="ent0013" data-entity-2="ent0010" data-link-type="dependency" data-source-line="89" id="lnk25"><path d="M480,84.48 C480,142.21 480,320.24 480,320.24 C480,320.24 312.71,320.24 241.37,320.24" fill="none" id="verifier-to-crypto" style="stroke:#444444;stroke-width:1;stroke-dasharray:7,7;"/><polygon fill="#444444" points="236.37,320.24,245.37,324.24,241.37,320.24,245.37,316.24,236.37,320.24" style="stroke:#444444;stroke-width:1;stroke-linejoin:miter;stroke-miterlimit:10;"/></g><!--link signer to crypto--><g class="link" data-entity-1="ent0014" data-entity-2="ent0010" data-link-type="dependency" data-source-line="90" id="lnk26"><path d="M568,84.49 C568,144.04 568,332.24 568,332.24 C568,332.24 328.24,332.24 241.24,332.24" fill="none" id="signer-to-crypto" style="stroke:#444444;stroke-width:1;stroke-dasharray:7,7;"/><polygon fill="#444444" points="236.24,332.24,245.24,336.24,241.24,332.24,245.24,328.24,236.24,332.24" style="stroke:#444444;stroke-width:1;stroke-linejoin:miter;stroke-miterlimit:10;"/></g><?plantuml-src VLPHRnit37w_Nq5S7vAWjjCrNO6jm81jGVUo5SDIT0_3WCedsgTPbWwIpeuxvB_letG-dxsW1e9854bzf3wITqM_gsQZrZotl6DBEyDxyYjABLCNZ6jCfonrHIUISZeVQHEuISOxqMsyIy7RwegkdKy4F-50Pjlva6vcj3KXU7XQPqErZ2ceOjf7rcHSbkClcaWhi-u3aqbm5dlecjGdZWkwPskM75HYUo1-R6ol0KSi-sJiBIJSPQUNKCLHgm9kIeSEuk6-u85qq5rKLz3QUetunQe9XovvQbH07CwJzMlJ34anWVpUPJKuBI68lwYsJ7jreEK1ldmdK05d9iPPUs-IumXOrcpu7MnybAW38y_Uk4Gg5KS5RBrKaMkuMWVVTsBTagA8D5ea4HdT4sveES18EJ7E-6y7x94xLP8re-Y7F1HNWPK6Z4Wrm4TQ-jJMo4fCa4kGEgYzlDPR2BNP6TqhYvmtmKUv7dvOItvNFW3HtUDhUBGvsDYQRb5LSMEStBwLMBJFpbRAHfwSE805HdhzxKGObDk8yCshYR3n899ZbnxI0Q4BxPGaOQAYUQLwczw3XX_a6Ufx_aTzwkb1kKY_UUVhvvKVp1UcR-wc27plTEE3GrxVJkJME1Rw42ZT-kevUFHlHVGJ2BNEJdxs5ldvipM9HUw3vb1aBzxa7wHJ34yJdmCjd_M8ud4HQhZnqkzt-JTAIxwqJudrsMNZrLbXwUtn-1pV5D6OzOBfsMZ-A21pxbwTMVyeT3rNhuunrYZheCAXpfwJNtCcjMneajnQTQOMqkB_vP4sUi_BV5gMK7YggZETmD7R7MUbOLrzzRwnWhF9kBjKGtLd1Vo_F1eAFXyFwoEmiIL9aNzFlRDgoHRxb_cWeqB1AALhqgbYLIdXN518BC-oB-cvYXpsUgJEzQaD1YwqpeqAgtNh-tIpWEdfLMlAC0NE_rEH6qi-pwlBuz9nydbPvYYV9a-CLfVA-qxCVlNhzvmQ93-RhigQNaYfBRIARMRjnE0J1xCoW_fks7n5_y6itQ0Ty_9S5m319PhFVvYyxb5of4ZXqvce6XOq_wirMhFx-yp3U0gfa6AwFx80BVIU6viPCCXkeNixUYbpTDpcmq7nXcJ6zQ7pmXmP2_1sXrQDo8KNfJTZdlZJMCAmH7SFC_ebgAxTcI_KcMOZhH-qGEsHJEfO9fVEm0gANEQppA_beRZpVMZu2gng4iO2FSw1muZoWZwscD_PX4o49z77KyXyIhc1HcBLjCFmmY2I3m6pRXC9EM6Kuk3_7PAT7PLnSus-4NYkj3v-H7pEH1qV88WNv5TuzXcneUkZdFp-HYQJKKjChwtQy17KSH9BgX1lmfrWY6PCRp74N8Cu-2xN6JuNvlD2jqEPmcMMeW4381uGnTJrAC1Labdi-wOjA96CfVNDPb4TxnCA2F1AFWd6pUdHHr5rB8R5uiIxaV4Y70fjuFL4yXy0?></g></svg>