<svg xmlns="http://www.w3.org/2000/svg" xmlns:xlink="http://www.w3.org/1999/xlink" contentStyleType="text/css" data-diagram-type="DESCRIPTION" height="442px" preserveAspectRatio="none" style="width:629px;height:442px;background:#FFFFFF;" version="1.1" viewBox="0 0 629 442" width="629px" zoomAndPan="magnify"><?plantuml 1.2026.6?><defs/><g><!--cluster library--><g class="cluster" data-qualified-name="library" data-source-line="41" id="ent0001"><path d="M9,6 L56.5029,6 A4.5,4.5 0 0 1 59.5029,9 L66.5029,28.4883 L289,28.4883 A3,3 0 0 1 292,31.4883 L292,424.24 A3,3 0 0 1 289,427.24 L9,427.24 A3,3 0 0 1 6,424.24 L6,9 A3,3 0 0 1 9,6" fill="none" style="stroke:#999999;stroke-width:1.5;stroke-dasharray:1,1;"/><line style="stroke:#999999;stroke-width:1.5;stroke-dasharray:1,1;" x1="6" x2="66.5029" y1="28.4883" y2="28.4883"/><text fill="#444444" font-family="'DejaVu Sans Mono'" font-size="14" font-weight="700" lengthAdjust="spacing" textLength="47.5029" x="10" y="21.5352">library</text></g><!--cluster base--><g class="cluster" data-qualified-name="library.base" data-source-line="57" id="ent0008"><rect fill="none" height="101.31" style="stroke:#444444;stroke-width:1;" width="202" x="58" y="293.93"/><text fill="#000000" font-family="'DejaVu Sans Mono'" font-size="13" font-weight="700" lengthAdjust="spacing" textLength="4.2847" x="156.8577" y="308.4984">&#160;</text></g><!--cluster host--><g class="cluster" data-qualified-name="host" data-source-line="63" id="ent0011"><path d="M319,175.62 L350.7256,175.62 A4.5,4.5 0 0 1 353.7256,178.62 L360.7256,198.1083 L611,198.1083 A3,3 0 0 1 614,201.1083 L614,258.93 A3,3 0 0 1 611,261.93 L319,261.93 A3,3 0 0 1 316,258.93 L316,178.62 A3,3 0 0 1 319,175.62" fill="none" style="stroke:#999999;stroke-width:1.5;stroke-dasharray:1,1;"/><line style="stroke:#999999;stroke-width:1.5;stroke-dasharray:1,1;" x1="316" x2="360.7256" y1="198.1083" y2="198.1083"/><text fill="#444444" font-family="'DejaVu Sans Mono'" font-size="14" font-weight="700" lengthAdjust="spacing" textLength="31.7256" x="320" y="191.1552">host</text></g><!--entity api--><g class="entity" data-qualified-name="library.api" data-source-line="43" id="ent0002"><rect fill="#FFFFFF" height="35.3105" rx="3" ry="3" style="stroke:#444444;stroke-width:0.5;" width="39.1191" x="58.44" y="49"/><text fill="#000000" font-family="'DejaVu Sans Mono'" font-size="13" lengthAdjust="spacing" textLength="19.1191" x="68.44" y="71.5684">api</text></g><!--entity didweb--><g class="entity" data-qualified-name="library.didweb" data-source-line="44" id="ent0003"><rect fill="#FFFFFF" height="35.3105" rx="3" ry="3" style="stroke:#444444;stroke-width:0.5;" width="65.5635" x="122.22" y="49"/><text fill="#000000" font-family="'DejaVu Sans Mono'" font-size="13" lengthAdjust="spacing" textLength="45.5635" x="132.22" y="71.5684">didweb</text></g><!--entity resolve--><g class="entity" data-qualified-name="library.resolve" data-source-line="47" id="ent0004"><rect fill="#FFFFFF" height="35.3105" rx="3" ry="3" style="stroke:#444444;stroke-width:0.5;" width="64.9033" x="122.55" y="124.31"/><text fill="#000000" font-family="'DejaVu Sans Mono'" font-size="13" lengthAdjust="spacing" textLength="44.9033" x="132.55" y="146.8784">resolve</text></g><!--entity operation--><g class="entity" data-qualified-name="library.operation" data-source-line="50" id="ent0005"><rect fill="#FFFFFF" height="35.3105" rx="3" ry="3" style="stroke:#444444;stroke-width:0.5;" width="80.582" x="29.71" y="210.62"/><text fill="#000000" font-family="'DejaVu Sans Mono'" font-size="13" lengthAdjust="spacing" textLength="60.582" x="39.71" y="233.1884">operation</text></g><!--entity log--><g class="entity" data-qualified-name="library.log" data-source-line="51" id="ent0006"><rect fill="#FFFFFF" height="35.3105" rx="3" ry="3" style="stroke:#444444;stroke-width:0.5;" width="39.8491" x="135.08" y="210.62"/><text fill="#000000" font-family="'DejaVu Sans Mono'" font-size="13" lengthAdjust="spacing" textLength="19.8491" x="145.08" y="233.1884">log</text></g><!--entity witness--><g class="entity" data-qualified-name="library.witness" data-source-line="52" id="ent0007"><rect fill="#FFFFFF" height="35.3105" rx="3" ry="3" style="stroke:#444444;stroke-width:0.5;" width="67.2012" x="200.4" y="210.62"/><text fill="#000000" font-family="'DejaVu Sans Mono'" font-size="13" lengthAdjust="spacing" textLength="47.2012" x="210.4" y="233.1884">witness</text></g><!--entity model--><g class="entity" data-qualified-name="library.base.model" data-source-line="58" id="ent0009"><rect fill="#FFFFFF" height="35.3105" rx="3" ry="3" style="stroke:#444444;stroke-width:0.5;" width="59.3047" x="91.35" y="335.93"/><text fill="#000000" font-family="'DejaVu Sans Mono'" font-size="13" lengthAdjust="spacing" textLength="39.3047" x="101.35" y="358.4984">model</text></g><!--entity crypto--><g class="entity" data-qualified-name="library.base.crypto" data-source-line="59" id="ent0010"><rect fill="#FFFFFF" height="35.3105" rx="3" ry="3" style="stroke:#444444;stroke-width:0.5;" width="59.7998" x="176.1" y="335.93"/><text fill="#000000" font-family="'DejaVu Sans Mono'" font-size="13" lengthAdjust="spacing" textLength="39.7998" x="186.1" y="358.4984">crypto</text></g><!--entity fetcher--><g class="entity" data-qualified-name="host.fetcher" data-source-line="64" id="ent0012"><rect fill="#FFFFFF" height="35.3105" rx="3" ry="3" style="stroke:#444444;stroke-width:1;stroke-dasharray:7,7;" width="89.3862" x="332.31" y="210.62"/><text fill="#000000" font-family="'DejaVu Sans Mono'" font-size="13" lengthAdjust="spacing" textLength="69.3862" x="342.31" y="233.1884">LogFetcher</text></g><!--entity verifier--><g class="entity" data-qualified-name="host.verifier" data-source-line="65" id="ent0013"><rect fill="#FFFFFF" height="35.3105" rx="3" ry="3" style="stroke:#444444;stroke-width:1;stroke-dasharray:7,7;" width="65.9189" x="447.04" y="210.62"/><text fill="#000000" font-family="'DejaVu Sans Mono'" font-size="13" lengthAdjust="spacing" textLength="45.9189" x="457.04" y="233.1884">Verifier</text></g><!--entity signer--><g class="entity" data-qualified-name="host.signer" data-source-line="66" id="ent0014"><rect fill="#FFFFFF" height="35.3105" rx="3" ry="3" style="stroke:#444444;stroke-width:1;stroke-dasharray:7,7;" width="59.4951" x="538.25" y="210.62"/><text fill="#000000" font-family="'DejaVu Sans Mono'" font-size="13" lengthAdjust="spacing" textLength="39.4951" x="548.25" y="233.1884">Signer</text></g><!--link api to operation--><g class="link" data-entity-1="ent0002" data-entity-2="ent0005" data-link-type="dependency" data-source-line="69" id="lnk15"><path d="M71.48,84.57 C71.48,115.63 71.48,174.16 71.48,205.28" fill="none" id="api-to-operation" style="stroke:#444444;stroke-width:1;"/><polygon fill="#444444" points="71.48,210.28,75.48,201.28,71.48,205.28,67.48,201.28,71.48,210.28" style="stroke:#444444;stroke-width:1;stroke-linejoin:miter;stroke-miterlimit:10;"/></g><!--link api to resolve--><g class="link" data-entity-1="ent0002" data-entity-2="ent0004" data-link-type="dependency" data-source-line="70" id="lnk16"><path d="M84.52,84.57 C84.52,106.92 84.52,142.24 84.52,142.24 C84.52,142.24 98.83,142.24 117.24,142.24" fill="none" id="api-to-resolve" style="stroke:#444444;stroke-width:1;"/><polygon fill="#444444" points="122.24,142.24,113.24,138.24,117.24,142.24,113.24,146.24,122.24,142.24" style="stroke:#444444;stroke-width:1;stroke-linejoin:miter;stroke-miterlimit:10;"/></g><!--link didweb to resolve--><g class="link" data-entity-1="ent0003" data-entity-2="ent0004" data-link-type="dependency" data-source-line="71" id="lnk17"><path d="M155,84.5 C155,96.42 155,107.04 155,118.98" fill="none" id="didweb-to-resolve" style="stroke:#444444;stroke-width:1;"/><polygon fill="#444444" points="155,123.98,159,114.98,155,118.98,151,114.98,155,123.98" style="stroke:#444444;stroke-width:1;stroke-linejoin:miter;stroke-miterlimit:10;"/></g><!--link resolve to operation--><!--link operation to base--><g class="link" data-entity-1="ent0005" data-entity-2="ent0008" data-link-type="dependency" data-source-line="75" id="lnk19"><path d="M66,246.23 C66,254.35 66,264.5613 66,275.4373 C66,280.8754 66,286.4796 66,292.0718 C66,292.4213 66,292.7708 66,293.1202 C66,293.2948 66,288.4695 66,288.6441" fill="none" id="operation-to-base" style="stroke:#444444;stroke-width:1;"/><polygon fill="#444444" points="66,293.6441,70,284.6441,66,288.6441,62,284.6441,66,293.6441" style="stroke:#444444;stroke-width:1;stroke-linejoin:miter;stroke-miterlimit:10;"/></g><!--link resolve to log--><g class="link" data-entity-1="ent0004" data-entity-2="ent0006" data-link-type="dependency" data-source-line="76" id="lnk20"><path d="M155,159.85 C155,174.66 155,190.61 155,205.41" fill="none" id="resolve-to-log" style="stroke:#444444;stroke-width:1;"/><polygon fill="#444444" points="155,210.41,159,201.41,155,205.41,151,201.41,155,210.41" style="stroke:#444444;stroke-width:1;stroke-linejoin:miter;stroke-miterlimit:10;"/></g><!--link resolve to witness--><g class="link" data-entity-1="ent0004" data-entity-2="ent0007" data-link-type="dependency" data-source-line="77" id="lnk21"><path d="M181.78,159.84 C181.78,185.11 181.78,228.24 181.78,228.24 C181.78,228.24 185.07,228.24 195.04,228.24" fill="none" id="resolve-to-witness" style="stroke:#444444;stroke-width:1;"/><polygon fill="#444444" points="200.04,228.24,191.04,224.24,195.04,228.24,191.04,232.24,200.04,228.24" style="stroke:#444444;stroke-width:1;stroke-linejoin:miter;stroke-miterlimit:10;"/></g><!--link log to base--><g class="link" data-entity-1="ent0006" data-entity-2="ent0008" data-link-type="dependency" data-source-line="78" id="lnk22"><path d="M162.79,246.43 C162.79,256.9525 162.79,271.1394 162.79,286.5008 C162.79,288.421 162.79,290.3595 162.79,292.3115 C162.79,292.7995 162.79,288.2884 162.79,288.778" fill="none" id="log-to-base" style="stroke:#444444;stroke-width:1;"/><polygon fill="#444444" points="162.79,293.778,166.79,284.778,162.79,288.778,158.79,284.778,162.79,293.778" style="stroke:#444444;stroke-width:1;stroke-linejoin:miter;stroke-miterlimit:10;"/></g><!--link witness to base--><g class="link" data-entity-1="ent0007" data-entity-2="ent0008" data-link-type="dependency" data-source-line="79" id="lnk23"><path d="M218.15,246.15 C218.15,264.76 218.15,291.24 218.15,291.24 C218.15,291.24 75.12,291.24 75.12,291.24 C75.12,291.24 75.12,291.4861 75.12,291.9475 C75.12,292.1782 75.12,292.4628 75.12,292.7973 C75.12,292.9646 75.12,293.1443 75.12,293.3361 C75.12,293.432 75.12,293.5309 75.12,293.6327 C75.12,293.6837 75.12,288.7353 75.12,288.7877" fill="none" id="witness-to-base" style="stroke:#444444;stroke-width:1;"/><polygon fill="#444444" points="75.12,293.7877,79.12,284.7877,75.12,288.7877,71.12,284.7877,75.12,293.7877" style="stroke:#444444;stroke-width:1;stroke-linejoin:miter;stroke-miterlimit:10;"/></g><!--link resolve to fetcher--><!--link fetcher to resolve--><g class="link" data-entity-1="ent0012" data-entity-2="ent0004" data-link-type="dependency" data-source-line="85" id="lnk27"><path d="M362.1,210.51 C362.1,186.93 362.1,148.24 362.1,148.24 C362.1,148.24 251.21,148.24 192.82,148.24" fill="none" id="fetcher-to-resolve" style="stroke:#444444;stroke-width:1;stroke-dasharray:7,7;"/><polygon fill="#444444" points="187.82,148.24,196.82,152.24,192.82,148.24,196.82,144.24,187.82,148.24" style="stroke:#444444;stroke-width:1;stroke-linejoin:miter;stroke-miterlimit:10;"/></g><!--link base to verifier--><!--link base to signer--><!--link verifier to crypto--><g class="link" data-entity-1="ent0013" data-entity-2="ent0010" data-link-type="dependency" data-source-line="86" id="lnk28"><path d="M490.99,246.34 C490.99,279.62 490.99,347.24 490.99,347.24 C490.99,347.24 314.57,347.24 241.23,347.24" fill="none" id="verifier-to-crypto" style="stroke:#444444;stroke-width:1;stroke-dasharray:7,7;"/><polygon fill="#444444" points="236.23,347.24,245.23,351.24,241.23,347.24,245.23,343.24,236.23,347.24" style="stroke:#444444;stroke-width:1;stroke-linejoin:miter;stroke-miterlimit:10;"/></g><!--link signer to crypto--><g class="link" data-entity-1="ent0014" data-entity-2="ent0010" data-link-type="dependency" data-source-line="87" id="lnk29"><path d="M577.92,246.21 C577.92,282.08 577.92,359.24 577.92,359.24 C577.92,359.24 329.66,359.24 241.12,359.24" fill="none" id="signer-to-crypto" style="stroke:#444444;stroke-width:1;stroke-dasharray:7,7;"/><polygon fill="#444444" points="236.12,359.24,245.12,363.24,241.12,359.24,245.12,355.24,236.12,359.24" style="stroke:#444444;stroke-width:1;stroke-linejoin:miter;stroke-miterlimit:10;"/></g><?plantuml-src VLNVZnCt47xVlsAqF1o8kq0vYaGh8K4HJss5E8a-L7rmrfFTuHpFolOcfEZ-TyRZtSqcTn0fYZq_Fd_pUSQvW8-ckJKjNZdSeOCTuHvu0wb3w0FvXdhZe2yn4Ootwh8Ki4d4FiSsx5DWLrt0Oyy912SSWBOzX_Ja4hOK0WjIgubc7LCm9NM8Q86yskKRASA6sY4WK1AmE4WifI5XNC5xTBJ6O1Aw0-3NnWrMwEJC8P5x9XRi5VISQWRgJ92Jqg4NytXUO64wngwg2udQifNwSrOJ3drYQ4oGEZo3uvQQKHGAm7klOG9QIiXuqMmHzkO0wuDWSP-f2ftBdApHUqeUez1oT8k_Imx7N7L0qPd99p2f01MozTf4h0Mg3JpqERi30r5aT2AYABe7EQ7384d6vsJb_spa7h4tHQnBY3pgKA026Yiq8jH2FiAQKrUBAZ69FHTfWzddstebHaixieDnedaJEERZ1GTjrdV3GHXTVtqXY4wBZHtrgwgAj-JpwTjSYsK5snWNSU7nGbOumejV5yPW_6qsldo-C3OiZUJHfvjqaD9psvaimYB4uiOCBdsGDlmxNqFz7h-OpmFS61_XB_PSFnnyG_yZ_7AzPC23jmq7Bxg-MjWTUSpj0zBI7LSFqODl5S0xQQXMGVvW9_hyqr72RETWCHJRevVw4UkImzq2SspB1n5bU7oKC3dn7FUrVcPhqSjoIcXF3fkFre0rkybzoc_9Q5QzS7gmca-5f6ht_2JxRMxNq_1ggh6MiGuc76f5JjoYDdNUm4BSslHKvwQLttEN9Rl7jNhBKWBkgkea9c1ajqCD6jVLJy-R9rXJvjrvc4ot1iZlkMiSU7MFwudO_2Jb8VyD1k_C6ftidwgZXzA2COykfUF4cZB2Eb0YB5ugLdvp3NZPsxbr7X-VmO2bhVMXabNRyP2Uh2JrUAirACrCvxuK-h2eNrVdxlBYgByijSgxnHNBKvVA_IxI_kJs0wP6nDVKJLd3epngAsjYfrsxIFYCWJOqXk_6pK_YRwZrOtJKvMci49HUWgkhDulRdInJYvH-EZ5LumAk_kt8MlJ_dI1KyrApigB7337aHbdkfyx8VnDpmlHVCHlk7ngexPAuHzqglRfxtacc7xYBBbKrYRzQ7UkS5Sx6yM977HUMxm00?></g></svg>