<svg xmlns="http://www.w3.org/2000/svg" xmlns:xlink="http://www.w3.org/1999/xlink" contentStyleType="text/css" data-diagram-type="DESCRIPTION" height="417px" preserveAspectRatio="none" style="width:679px;height:417px;background:#FFFFFF;" version="1.1" viewBox="0 0 679 417" width="679px" zoomAndPan="magnify"><?plantuml 1.2026.6?><defs/><g><!--cluster library--><g class="cluster" data-qualified-name="library" data-source-line="41" id="ent0001"><path d="M9,11.3 L56.5029,11.3 A4.5,4.5 0 0 1 59.5029,14.3 L66.5029,33.7883 L289,33.7883 A3,3 0 0 1 292,36.7883 L292,399.84 A3,3 0 0 1 289,402.84 L9,402.84 A3,3 0 0 1 6,399.84 L6,14.3 A3,3 0 0 1 9,11.3" fill="none" style="stroke:#999999;stroke-width:1.5;stroke-dasharray:1,1;"/><line style="stroke:#999999;stroke-width:1.5;stroke-dasharray:1,1;" x1="6" x2="66.5029" y1="33.7883" y2="33.7883"/><text fill="#444444" font-family="'DejaVu Sans Mono'" font-size="14" font-weight="700" lengthAdjust="spacing" textLength="47.5029" x="10" y="26.8352">library</text></g><!--cluster base--><g class="cluster" data-qualified-name="library.base" data-source-line="53" id="ent0007"><rect fill="none" height="101.31" style="stroke:#444444;stroke-width:1;" width="202" x="58" y="269.53"/><text fill="#000000" font-family="'DejaVu Sans Mono'" font-size="13" font-weight="700" lengthAdjust="spacing" textLength="4.2847" x="156.8577" y="284.0984">&#160;</text></g><!--cluster host--><g class="cluster" data-qualified-name="host" data-source-line="63" id="ent0010"><path d="M319,6 L350.7256,6 A4.5,4.5 0 0 1 353.7256,9 L360.7256,28.4883 L661,28.4883 A3,3 0 0 1 664,31.4883 L664,99.91 A3,3 0 0 1 661,102.91 L319,102.91 A3,3 0 0 1 316,99.91 L316,9 A3,3 0 0 1 319,6" fill="none" style="stroke:#999999;stroke-width:1.5;stroke-dasharray:1,1;"/><line style="stroke:#999999;stroke-width:1.5;stroke-dasharray:1,1;" x1="316" x2="360.7256" y1="28.4883" y2="28.4883"/><text fill="#444444" font-family="'DejaVu Sans Mono'" font-size="14" font-weight="700" lengthAdjust="spacing" textLength="31.7256" x="320" y="21.5352">host</text></g><!--entity api--><g class="entity" data-qualified-name="library.api" data-source-line="42" id="ent0002"><rect fill="#FFFFFF" height="35.3105" rx="3" ry="3" style="stroke:#444444;stroke-width:0.5;" width="39.1191" x="105.44" y="46.3"/><text fill="#000000" font-family="'DejaVu Sans Mono'" font-size="13" lengthAdjust="spacing" textLength="19.1191" x="115.44" y="68.8684">api</text></g><!--entity resolve--><g class="entity" data-qualified-name="library.resolve" data-source-line="43" id="ent0003"><rect fill="#FFFFFF" height="35.3105" rx="3" ry="3" style="stroke:#444444;stroke-width:0.5;" width="64.9033" x="122.55" y="126.91"/><text fill="#000000" font-family="'DejaVu Sans Mono'" font-size="13" lengthAdjust="spacing" textLength="44.9033" x="132.55" y="149.4784">resolve</text></g><!--entity operation--><g class="entity" data-qualified-name="library.operation" data-source-line="46" id="ent0004"><rect fill="#FFFFFF" height="35.3105" rx="3" ry="3" style="stroke:#444444;stroke-width:0.5;" width="80.582" x="29.71" y="202.22"/><text fill="#000000" font-family="'DejaVu Sans Mono'" font-size="13" lengthAdjust="spacing" textLength="60.582" x="39.71" y="224.7884">operation</text></g><!--entity log--><g class="entity" data-qualified-name="library.log" data-source-line="47" id="ent0005"><rect fill="#FFFFFF" height="35.3105" rx="3" ry="3" style="stroke:#444444;stroke-width:0.5;" width="39.8491" x="135.08" y="202.22"/><text fill="#000000" font-family="'DejaVu Sans Mono'" font-size="13" lengthAdjust="spacing" textLength="19.8491" x="145.08" y="224.7884">log</text></g><!--entity witness--><g class="entity" data-qualified-name="library.witness" data-source-line="48" id="ent0006"><rect fill="#FFFFFF" height="35.3105" rx="3" ry="3" style="stroke:#444444;stroke-width:0.5;" width="67.2012" x="200.4" y="202.22"/><text fill="#000000" font-family="'DejaVu Sans Mono'" font-size="13" lengthAdjust="spacing" textLength="47.2012" x="210.4" y="224.7884">witness</text></g><!--entity model--><g class="entity" data-qualified-name="library.base.model" data-source-line="54" id="ent0008"><rect fill="#FFFFFF" height="35.3105" rx="3" ry="3" style="stroke:#444444;stroke-width:0.5;" width="59.3047" x="91.35" y="311.53"/><text fill="#000000" font-family="'DejaVu Sans Mono'" font-size="13" lengthAdjust="spacing" textLength="39.3047" x="101.35" y="334.0984">model</text></g><!--entity crypto--><g class="entity" data-qualified-name="library.base.crypto" data-source-line="55" id="ent0009"><rect fill="#FFFFFF" height="35.3105" rx="3" ry="3" style="stroke:#444444;stroke-width:0.5;" width="59.7998" x="176.1" y="311.53"/><text fill="#000000" font-family="'DejaVu Sans Mono'" font-size="13" lengthAdjust="spacing" textLength="39.7998" x="186.1" y="334.0984">crypto</text></g><!--entity fetcher--><g class="entity" data-qualified-name="host.fetcher" data-source-line="64" id="ent0011"><rect fill="#FFFFFF" height="45.9102" rx="3" ry="3" style="stroke:#444444;stroke-width:1;stroke-dasharray:7,7;" width="97.6909" x="332.15" y="41"/><text fill="#000000" font-family="'DejaVu Sans Mono'" font-size="13" lengthAdjust="spacing" textLength="69.3862" x="342.15" y="63.5684">LogFetcher</text><text fill="#888888" font-family="'DejaVu Sans Mono'" font-size="9" lengthAdjust="spacing" textLength="77.6909" x="342.15" y="75.0117">(default provided)</text></g><!--entity verifier--><g class="entity" data-qualified-name="host.verifier" data-source-line="65" id="ent0012"><rect fill="#FFFFFF" height="45.9102" rx="3" ry="3" style="stroke:#444444;stroke-width:1;stroke-dasharray:7,7;" width="97.6909" x="455.15" y="41"/><text fill="#000000" font-family="'DejaVu Sans Mono'" font-size="13" lengthAdjust="spacing" textLength="45.9189" x="465.15" y="63.5684">Verifier</text><text fill="#888888" font-family="'DejaVu Sans Mono'" font-size="9" lengthAdjust="spacing" textLength="77.6909" x="465.15" y="75.0117">(default provided)</text></g><!--entity signer--><g class="entity" data-qualified-name="host.signer" data-source-line="66" id="ent0013"><rect fill="#FFFFFF" height="45.9102" rx="3" ry="3" style="stroke:#444444;stroke-width:1;stroke-dasharray:7,7;" width="70.3262" x="577.84" y="41"/><text fill="#000000" font-family="'DejaVu Sans Mono'" font-size="13" lengthAdjust="spacing" textLength="39.4951" x="587.84" y="63.5684">Signer</text><text fill="#888888" font-family="'DejaVu Sans Mono'" font-size="9" lengthAdjust="spacing" textLength="50.3262" x="587.84" y="75.0117">(no default)</text></g><!--link api to operation--><g class="link" data-entity-1="ent0002" data-entity-2="ent0004" data-link-type="dependency" data-source-line="69" id="lnk14"><path d="M116.42,82.03 C116.42,121.9 116.42,213.84 116.42,213.84 C116.42,213.84 119.2,213.84 115.73,213.84" fill="none" id="api-to-operation" style="stroke:#444444;stroke-width:1;"/><polygon fill="#444444" points="110.73,213.84,119.73,217.84,115.73,213.84,119.73,209.84,110.73,213.84" style="stroke:#444444;stroke-width:1;stroke-linejoin:miter;stroke-miterlimit:10;"/></g><!--link api to resolve--><g class="link" data-entity-1="ent0002" data-entity-2="ent0003" data-link-type="dependency" data-source-line="70" id="lnk15"><path d="M133.55,81.84 C133.55,95.11 133.55,108.12 133.55,121.44" fill="none" id="api-to-resolve" style="stroke:#444444;stroke-width:1;"/><polygon fill="#444444" points="133.55,126.44,137.55,117.44,133.55,121.44,129.55,117.44,133.55,126.44" style="stroke:#444444;stroke-width:1;stroke-linejoin:miter;stroke-miterlimit:10;"/></g><!--link resolve to operation--><!--link resolve to log--><g class="link" data-entity-1="ent0003" data-entity-2="ent0005" data-link-type="dependency" data-source-line="73" id="lnk17"><path d="M155,162.41 C155,174.33 155,184.95 155,196.89" fill="none" id="resolve-to-log" style="stroke:#444444;stroke-width:1;"/><polygon fill="#444444" points="155,201.89,159,192.89,155,196.89,151,192.89,155,201.89" style="stroke:#444444;stroke-width:1;stroke-linejoin:miter;stroke-miterlimit:10;"/></g><!--link resolve to witness--><g class="link" data-entity-1="ent0003" data-entity-2="ent0006" data-link-type="dependency" data-source-line="74" id="lnk18"><path d="M181.78,162.4 C181.78,184.66 181.78,219.84 181.78,219.84 C181.78,219.84 185.07,219.84 195.04,219.84" fill="none" id="resolve-to-witness" style="stroke:#444444;stroke-width:1;"/><polygon fill="#444444" points="200.04,219.84,191.04,215.84,195.04,219.84,191.04,223.84,200.04,219.84" style="stroke:#444444;stroke-width:1;stroke-linejoin:miter;stroke-miterlimit:10;"/></g><!--link witness to base--><g class="link" data-entity-1="ent0006" data-entity-2="ent0007" data-link-type="dependency" data-source-line="83" id="lnk19"><path d="M218.15,237.87 C218.15,245.885 218.15,255.1275 218.15,262.3663 C218.15,264.1759 218.15,265.8604 218.15,267.3691 C218.15,268.1235 218.15,263.8339 218.15,264.4941" fill="none" id="witness-to-base" style="stroke:#444444;stroke-width:1;"/><polygon fill="#444444" points="218.15,269.4941,222.15,260.4941,218.15,264.4941,214.15,260.4941,218.15,269.4941" style="stroke:#444444;stroke-width:1;stroke-linejoin:miter;stroke-miterlimit:10;"/></g><!--link log to base--><g class="link" data-entity-1="ent0005" data-entity-2="ent0007" data-link-type="dependency" data-source-line="84" id="lnk20"><path d="M162.79,237.94 C162.79,242.7975 162.79,248.4234 162.79,254.5498 C162.79,257.613 162.79,260.8013 162.79,264.0812 C162.79,265.7211 162.79,262.384 162.79,264.0655" fill="none" id="log-to-base" style="stroke:#444444;stroke-width:1;"/><polygon fill="#444444" points="162.79,269.0655,166.79,260.0655,162.79,264.0655,158.79,260.0655,162.79,269.0655" style="stroke:#444444;stroke-width:1;stroke-linejoin:miter;stroke-miterlimit:10;"/></g><!--link operation to base--><g class="link" data-entity-1="ent0004" data-entity-2="ent0007" data-link-type="dependency" data-source-line="85" id="lnk21"><path d="M66,237.92 C66,245.1975 66,254.0769 66,263.4075 C66,264.5738 66,265.7472 66,266.9254 C66,267.5145 66,268.1048 66,268.696 C66,268.8438 66,263.9916 66,264.1396" fill="none" id="operation-to-base" style="stroke:#444444;stroke-width:1;"/><polygon fill="#444444" points="66,269.1396,70,260.1396,66,264.1396,62,260.1396,66,269.1396" style="stroke:#444444;stroke-width:1;stroke-linejoin:miter;stroke-miterlimit:10;"/></g><!--link fetcher to resolve--><g class="link" data-entity-1="ent0011" data-entity-2="ent0003" data-link-type="dependency" data-source-line="87" id="lnk22"><path d="M331.68,63.84 C268.2,63.84 166.01,63.84 166.01,63.84 C166.01,63.84 166.01,97.87 166.01,121.65" fill="none" id="fetcher-to-resolve" style="stroke:#444444;stroke-width:1;stroke-dasharray:7,7;"/><polygon fill="#444444" points="166.01,126.65,170.01,117.65,166.01,121.65,162.01,117.65,166.01,126.65" style="stroke:#444444;stroke-width:1;stroke-linejoin:miter;stroke-miterlimit:10;"/></g><!--link verifier to crypto--><g class="link" data-entity-1="ent0012" data-entity-2="ent0009" data-link-type="dependency" data-source-line="88" id="lnk23"><path d="M504,87.38 C504,151.11 504,322.84 504,322.84 C504,322.84 316.97,322.84 241.21,322.84" fill="none" id="verifier-to-crypto" style="stroke:#444444;stroke-width:1;stroke-dasharray:7,7;"/><polygon fill="#444444" points="236.21,322.84,245.21,326.84,241.21,322.84,245.21,318.84,236.21,322.84" style="stroke:#444444;stroke-width:1;stroke-linejoin:miter;stroke-miterlimit:10;"/></g><!--link signer to crypto--><g class="link" data-entity-1="ent0013" data-entity-2="ent0009" data-link-type="dependency" data-source-line="89" id="lnk24"><path d="M613,87.05 C613,152.56 613,334.84 613,334.84 C613,334.84 335.58,334.84 241.26,334.84" fill="none" id="signer-to-crypto" style="stroke:#444444;stroke-width:1;stroke-dasharray:7,7;"/><polygon fill="#444444" points="236.26,334.84,245.26,338.84,241.26,334.84,245.26,330.84,236.26,334.84" style="stroke:#444444;stroke-width:1;stroke-linejoin:miter;stroke-miterlimit:10;"/></g><?plantuml-src fLPDRnit4BthLmpaWstKabCd3HhRCD36I7DeYw8kqaDR8DpbICk88XSaLufIvB_t3RcxaXotbmeml1pEnvl7cI5FwHTLhzIIPvOtR6bZU4j-GQbXQeDnjMcLfRReH59Evorj0jV9U2UwjNSfU3ivfJFd4y5Fs95PjpwaymjQcn0yF2speQfY2ggOTf4r6PVb-8icqi8iky1a4fp53hecTOdZdExPceg3Icntn1zhssd04Sik6Ni92RVPwMEeugXH0P7IheMuZnSyaFQwyyafjDPU8t-ngiEkJPvg5P27ysJzqjGzAIQGtxgi1gSb1V4NrPffgtPKxU3Bjm8LS2x4E6jlJN8S0SkQ5T_0naV9EZ1uziObKgauAc2dbOeyXQjby5qhrWqfYg3HWaGmkYL4Q3Z0I3anplWlU-oHMrN8kg3eUnwAgy1A0qQaAS17gdngfc0b9iWbIHtKLaxh9OJQR8pkb0NdTV1HmiCFQ-5tuGCGFVzu1Oys9niRqyudaxWoJgAl9HVjixE5if4FTXp00YDTVNCW3CgjHFZYsO6mzYWanouzf1rIbx9JGiA1YkQ5wcnwWpByMOvXUiyVrBkE7fIBz9DtVlgqyeFvnFJryqC4ldEwzi61rvS7SciSI_aGIhhnawVWqTyJekzHKClivBMtuEVtnYGMkG-QGv6TlCW_I0ynV3xmsPVbanxHF2v23H4V-tsLVwEqyALzIgoFWesXiqBbxR1zZEyGqSXwmVHaDhyMa9cxPqVMtqcv7gjFXXodQEkWmcwQFU_PdAhMJALAyVzu8t3qTiDvi_-UG2Fv9UT-43z71cCpPfDnzLWDZPeLyF_nLj-xURl_Xifd2JjE5-dNQ-gSLHLRhB_A6osLQehIXIRjcq-LRioz0Oxu8lkIyQd8OQt7AZZRJxJ0fKBppC7Nil5TEf_3T7z0Kyem1SwNLEGPaVVpr-FjCZpoVldCMIBFKthegbbE3Paa31RQDgPkXfkYp36Cj3HhWyVCo8CzSLYe6i1bC922bwepDiqmWlikfBCV_V8Dfne7TqrlKsfVMmCeimevixwXTnpCmiZcVR4O170c0uYrZchseOwpgsTNL-TbqcPasYEmy7dsO9PIaxCPgCMLjX7qAyP4mzpqpigy1WUCS_3hd8ta0LR74fNr5_Mv1_wdkurehEjNTxUr5FdroRVvTtSsP3bmSdvxcJNkRY_5uYuplIXUw4I6p5ohsEH-FGWrvFm_0srwD_yHgL3rxt5m6VQXdemG2zD7_b4zQ66mVtVGUeDaxD_-WsP_D4PhTdyTgO-xa4fx7gw7ViGftdDjSo_sialeNevUokDaNERDNl6SvE7GXTPB3yjT2s_FKS6WHZgqN7WeQB-_w_42mPKPBkY7eDfcOpvHQ-gLtATeK0mqakTFBCy1dO4L57bsNkJAh7R5dUz2pQVexphXhgMFC-0meZodtneyYh89cGXFee-paai_vLif4YjKUtaHu7QNrvLPDebaJC0enTx_3SZEZieTVeRc2JnJMWyli_TvP8m74CGB-9NYVu_SS9MY-_tsNAvxeoey2TPgnGEeuNaZL27VX9We1yru4eaXUXNYuDiyyJ00q8sv7dVbQLCUABZL0107YB7MTXY5YoGF7D_LJK49CYhhwzLyCiIJ4X3W4tbdZOlzeO-YoT1dy_c-xiQM464_yleYFf3y0m00?></g></svg>