<svg xmlns="http://www.w3.org/2000/svg" xmlns:xlink="http://www.w3.org/1999/xlink" contentStyleType="text/css" data-diagram-type="DESCRIPTION" height="420px" preserveAspectRatio="none" style="width:679px;height:420px;background:#FFFFFF;" version="1.1" viewBox="0 0 679 420" width="679px" zoomAndPan="magnify"><?plantuml 1.2026.6?><defs/><g><!--cluster library--><g class="cluster" data-qualified-name="library" data-source-line="41" id="ent0001"><path d="M9,6 L56.5029,6 A4.5,4.5 0 0 1 59.5029,9 L66.5029,28.4883 L289,28.4883 A3,3 0 0 1 292,31.4883 L292,402.54 A3,3 0 0 1 289,405.54 L9,405.54 A3,3 0 0 1 6,402.54 L6,9 A3,3 0 0 1 9,6" fill="none" style="stroke:#999999;stroke-width:1.5;stroke-dasharray:1,1;"/><line style="stroke:#999999;stroke-width:1.5;stroke-dasharray:1,1;" x1="6" x2="66.5029" y1="28.4883" y2="28.4883"/><text fill="#444444" font-family="'DejaVu Sans Mono'" font-size="14" font-weight="700" lengthAdjust="spacing" textLength="47.5029" x="10" y="21.5352">library</text></g><!--cluster base--><g class="cluster" data-qualified-name="library.base" data-source-line="57" id="ent0008"><rect fill="none" height="101.31" style="stroke:#444444;stroke-width:1;" width="202" x="58" y="272.23"/><text fill="#000000" font-family="'DejaVu Sans Mono'" font-size="13" font-weight="700" lengthAdjust="spacing" textLength="4.2847" x="156.8577" y="286.7984">&#160;</text></g><!--cluster host--><g class="cluster" data-qualified-name="host" data-source-line="67" id="ent0011"><path d="M319,8.7 L350.7256,8.7 A4.5,4.5 0 0 1 353.7256,11.7 L360.7256,31.1883 L661,31.1883 A3,3 0 0 1 664,34.1883 L664,102.61 A3,3 0 0 1 661,105.61 L319,105.61 A3,3 0 0 1 316,102.61 L316,11.7 A3,3 0 0 1 319,8.7" fill="none" style="stroke:#999999;stroke-width:1.5;stroke-dasharray:1,1;"/><line style="stroke:#999999;stroke-width:1.5;stroke-dasharray:1,1;" x1="316" x2="360.7256" y1="31.1883" y2="31.1883"/><text fill="#444444" font-family="'DejaVu Sans Mono'" font-size="14" font-weight="700" lengthAdjust="spacing" textLength="31.7256" x="320" y="24.2352">host</text></g><!--entity api--><g class="entity" data-qualified-name="library.api" data-source-line="43" id="ent0002"><rect fill="#FFFFFF" height="35.3105" rx="3" ry="3" style="stroke:#444444;stroke-width:0.5;" width="39.1191" x="58.44" y="49"/><text fill="#000000" font-family="'DejaVu Sans Mono'" font-size="13" lengthAdjust="spacing" textLength="19.1191" x="68.44" y="71.5684">api</text></g><!--entity didweb--><g class="entity" data-qualified-name="library.didweb" data-source-line="44" id="ent0003"><rect fill="#FFFFFF" height="35.3105" rx="3" ry="3" style="stroke:#444444;stroke-width:0.5;" width="65.5635" x="122.22" y="49"/><text fill="#000000" font-family="'DejaVu Sans Mono'" font-size="13" lengthAdjust="spacing" textLength="45.5635" x="132.22" y="71.5684">didweb</text></g><!--entity resolve--><g class="entity" data-qualified-name="library.resolve" data-source-line="47" id="ent0004"><rect fill="#FFFFFF" height="35.3105" rx="3" ry="3" style="stroke:#444444;stroke-width:0.5;" width="64.9033" x="122.55" y="129.61"/><text fill="#000000" font-family="'DejaVu Sans Mono'" font-size="13" lengthAdjust="spacing" textLength="44.9033" x="132.55" y="152.1784">resolve</text></g><!--entity operation--><g class="entity" data-qualified-name="library.operation" data-source-line="50" id="ent0005"><rect fill="#FFFFFF" height="35.3105" rx="3" ry="3" style="stroke:#444444;stroke-width:0.5;" width="80.582" x="29.71" y="204.92"/><text fill="#000000" font-family="'DejaVu Sans Mono'" font-size="13" lengthAdjust="spacing" textLength="60.582" x="39.71" y="227.4884">operation</text></g><!--entity log--><g class="entity" data-qualified-name="library.log" data-source-line="51" id="ent0006"><rect fill="#FFFFFF" height="35.3105" rx="3" ry="3" style="stroke:#444444;stroke-width:0.5;" width="39.8491" x="135.08" y="204.92"/><text fill="#000000" font-family="'DejaVu Sans Mono'" font-size="13" lengthAdjust="spacing" textLength="19.8491" x="145.08" y="227.4884">log</text></g><!--entity witness--><g class="entity" data-qualified-name="library.witness" data-source-line="52" id="ent0007"><rect fill="#FFFFFF" height="35.3105" rx="3" ry="3" style="stroke:#444444;stroke-width:0.5;" width="67.2012" x="200.4" y="204.92"/><text fill="#000000" font-family="'DejaVu Sans Mono'" font-size="13" lengthAdjust="spacing" textLength="47.2012" x="210.4" y="227.4884">witness</text></g><!--entity model--><g class="entity" data-qualified-name="library.base.model" data-source-line="58" id="ent0009"><rect fill="#FFFFFF" height="35.3105" rx="3" ry="3" style="stroke:#444444;stroke-width:0.5;" width="59.3047" x="91.35" y="314.23"/><text fill="#000000" font-family="'DejaVu Sans Mono'" font-size="13" lengthAdjust="spacing" textLength="39.3047" x="101.35" y="336.7984">model</text></g><!--entity crypto--><g class="entity" data-qualified-name="library.base.crypto" data-source-line="59" id="ent0010"><rect fill="#FFFFFF" height="35.3105" rx="3" ry="3" style="stroke:#444444;stroke-width:0.5;" width="59.7998" x="176.1" y="314.23"/><text fill="#000000" font-family="'DejaVu Sans Mono'" font-size="13" lengthAdjust="spacing" textLength="39.7998" x="186.1" y="336.7984">crypto</text></g><!--entity fetcher--><g class="entity" data-qualified-name="host.fetcher" data-source-line="68" id="ent0012"><rect fill="#FFFFFF" height="45.9102" rx="3" ry="3" style="stroke:#444444;stroke-width:1;stroke-dasharray:7,7;" width="97.6909" x="332.15" y="43.7"/><text fill="#000000" font-family="'DejaVu Sans Mono'" font-size="13" lengthAdjust="spacing" textLength="69.3862" x="342.15" y="66.2684">LogFetcher</text><text fill="#888888" font-family="'DejaVu Sans Mono'" font-size="9" lengthAdjust="spacing" textLength="77.6909" x="342.15" y="77.7117">(default provided)</text></g><!--entity verifier--><g class="entity" data-qualified-name="host.verifier" data-source-line="69" id="ent0013"><rect fill="#FFFFFF" height="45.9102" rx="3" ry="3" style="stroke:#444444;stroke-width:1;stroke-dasharray:7,7;" width="97.6909" x="455.15" y="43.7"/><text fill="#000000" font-family="'DejaVu Sans Mono'" font-size="13" lengthAdjust="spacing" textLength="45.9189" x="465.15" y="66.2684">Verifier</text><text fill="#888888" font-family="'DejaVu Sans Mono'" font-size="9" lengthAdjust="spacing" textLength="77.6909" x="465.15" y="77.7117">(default provided)</text></g><!--entity signer--><g class="entity" data-qualified-name="host.signer" data-source-line="70" id="ent0014"><rect fill="#FFFFFF" height="45.9102" rx="3" ry="3" style="stroke:#444444;stroke-width:1;stroke-dasharray:7,7;" width="70.3262" x="577.84" y="43.7"/><text fill="#000000" font-family="'DejaVu Sans Mono'" font-size="13" lengthAdjust="spacing" textLength="39.4951" x="587.84" y="66.2684">Signer</text><text fill="#888888" font-family="'DejaVu Sans Mono'" font-size="9" lengthAdjust="spacing" textLength="50.3262" x="587.84" y="77.7117">(no default)</text></g><!--link api to operation--><g class="link" data-entity-1="ent0002" data-entity-2="ent0005" data-link-type="dependency" data-source-line="73" id="lnk15"><path d="M71.48,84.54 C71.48,114.62 71.48,169.96 71.48,199.9" fill="none" id="api-to-operation" style="stroke:#444444;stroke-width:1;"/><polygon fill="#444444" points="71.48,204.9,75.48,195.9,71.48,199.9,67.48,195.9,71.48,204.9" style="stroke:#444444;stroke-width:1;stroke-linejoin:miter;stroke-miterlimit:10;"/></g><!--link api to resolve--><g class="link" data-entity-1="ent0002" data-entity-2="ent0004" data-link-type="dependency" data-source-line="74" id="lnk16"><path d="M84.52,84.6 C84.52,108.43 84.52,147.54 84.52,147.54 C84.52,147.54 98.83,147.54 117.24,147.54" fill="none" id="api-to-resolve" style="stroke:#444444;stroke-width:1;"/><polygon fill="#444444" points="122.24,147.54,113.24,143.54,117.24,147.54,113.24,151.54,122.24,147.54" style="stroke:#444444;stroke-width:1;stroke-linejoin:miter;stroke-miterlimit:10;"/></g><!--link didweb to resolve--><g class="link" data-entity-1="ent0003" data-entity-2="ent0004" data-link-type="dependency" data-source-line="75" id="lnk17"><path d="M155,84.54 C155,97.81 155,110.82 155,124.14" fill="none" id="didweb-to-resolve" style="stroke:#444444;stroke-width:1;"/><polygon fill="#444444" points="155,129.14,159,120.14,155,124.14,151,120.14,155,129.14" style="stroke:#444444;stroke-width:1;stroke-linejoin:miter;stroke-miterlimit:10;"/></g><!--link resolve to operation--><!--link resolve to log--><g class="link" data-entity-1="ent0004" data-entity-2="ent0006" data-link-type="dependency" data-source-line="78" id="lnk19"><path d="M155,165.11 C155,177.03 155,187.65 155,199.59" fill="none" id="resolve-to-log" style="stroke:#444444;stroke-width:1;"/><polygon fill="#444444" points="155,204.59,159,195.59,155,199.59,151,195.59,155,204.59" style="stroke:#444444;stroke-width:1;stroke-linejoin:miter;stroke-miterlimit:10;"/></g><!--link resolve to witness--><g class="link" data-entity-1="ent0004" data-entity-2="ent0007" data-link-type="dependency" data-source-line="79" id="lnk20"><path d="M181.78,165.1 C181.78,187.36 181.78,222.54 181.78,222.54 C181.78,222.54 185.07,222.54 195.04,222.54" fill="none" id="resolve-to-witness" style="stroke:#444444;stroke-width:1;"/><polygon fill="#444444" points="200.04,222.54,191.04,218.54,195.04,222.54,191.04,226.54,200.04,222.54" style="stroke:#444444;stroke-width:1;stroke-linejoin:miter;stroke-miterlimit:10;"/></g><!--link witness to base--><g class="link" data-entity-1="ent0007" data-entity-2="ent0008" data-link-type="dependency" data-source-line="88" id="lnk21"><path d="M218.15,240.57 C218.15,248.585 218.15,257.8275 218.15,265.0663 C218.15,266.8759 218.15,268.5604 218.15,270.0691 C218.15,270.8235 218.15,266.5339 218.15,267.1941" fill="none" id="witness-to-base" style="stroke:#444444;stroke-width:1;"/><polygon fill="#444444" points="218.15,272.1941,222.15,263.1941,218.15,267.1941,214.15,263.1941,218.15,272.1941" style="stroke:#444444;stroke-width:1;stroke-linejoin:miter;stroke-miterlimit:10;"/></g><!--link log to base--><g class="link" data-entity-1="ent0006" data-entity-2="ent0008" data-link-type="dependency" data-source-line="89" id="lnk22"><path d="M162.79,240.64 C162.79,245.4975 162.79,251.1234 162.79,257.2498 C162.79,260.313 162.79,263.5013 162.79,266.7812 C162.79,268.4211 162.79,265.084 162.79,266.7655" fill="none" id="log-to-base" style="stroke:#444444;stroke-width:1;"/><polygon fill="#444444" points="162.79,271.7655,166.79,262.7655,162.79,266.7655,158.79,262.7655,162.79,271.7655" style="stroke:#444444;stroke-width:1;stroke-linejoin:miter;stroke-miterlimit:10;"/></g><!--link operation to base--><g class="link" data-entity-1="ent0005" data-entity-2="ent0008" data-link-type="dependency" data-source-line="90" id="lnk23"><path d="M66,240.62 C66,247.8975 66,256.7769 66,266.1075 C66,267.2738 66,268.4472 66,269.6254 C66,270.2145 66,270.8048 66,271.396 C66,271.5438 66,266.6916 66,266.8396" fill="none" id="operation-to-base" style="stroke:#444444;stroke-width:1;"/><polygon fill="#444444" points="66,271.8396,70,262.8396,66,266.8396,62,262.8396,66,271.8396" style="stroke:#444444;stroke-width:1;stroke-linejoin:miter;stroke-miterlimit:10;"/></g><!--link fetcher to resolve--><g class="link" data-entity-1="ent0012" data-entity-2="ent0004" data-link-type="dependency" data-source-line="92" id="lnk24"><path d="M381,90.05 C381,113.94 381,147.54 381,147.54 C381,147.54 255.54,147.54 192.86,147.54" fill="none" id="fetcher-to-resolve" style="stroke:#444444;stroke-width:1;stroke-dasharray:7,7;"/><polygon fill="#444444" points="187.86,147.54,196.86,151.54,192.86,147.54,196.86,143.54,187.86,147.54" style="stroke:#444444;stroke-width:1;stroke-linejoin:miter;stroke-miterlimit:10;"/></g><!--link verifier to crypto--><g class="link" data-entity-1="ent0013" data-entity-2="ent0010" data-link-type="dependency" data-source-line="93" id="lnk25"><path d="M504,90.08 C504,153.81 504,325.54 504,325.54 C504,325.54 316.97,325.54 241.21,325.54" fill="none" id="verifier-to-crypto" style="stroke:#444444;stroke-width:1;stroke-dasharray:7,7;"/><polygon fill="#444444" points="236.21,325.54,245.21,329.54,241.21,325.54,245.21,321.54,236.21,325.54" style="stroke:#444444;stroke-width:1;stroke-linejoin:miter;stroke-miterlimit:10;"/></g><!--link signer to crypto--><g class="link" data-entity-1="ent0014" data-entity-2="ent0010" data-link-type="dependency" data-source-line="94" id="lnk26"><path d="M613,89.75 C613,155.26 613,337.54 613,337.54 C613,337.54 335.58,337.54 241.26,337.54" fill="none" id="signer-to-crypto" style="stroke:#444444;stroke-width:1;stroke-dasharray:7,7;"/><polygon fill="#444444" points="236.26,337.54,245.26,341.54,241.26,337.54,245.26,333.54,236.26,337.54" style="stroke:#444444;stroke-width:1;stroke-linejoin:miter;stroke-miterlimit:10;"/></g><?plantuml-src fLPHRzis47xNhpWu3qcmsEdIhbYJ8C3MeEl3DWpBq3ri0qg9PukrJ0eaPTST-j_t7Id9SfRrPGQ2YCVZtNSVxuvtIh-eQgrMF6zuomrj3U_8BIdMJAqtjZAjQgZDEe6KrMbB6yzLDCwARkLizAufJkdCkaYmu_TaDgtpyVo2DiPx1qkhT52L8NgLZtQ1DHcRvFWB9j3Ih3hFP2ACXGww9dQHmuBkkJ4bUnMvsHD_h9fE0uwSxA9fBY7XDXbz35KCrSh3Kzot4FV-l0FINdTHd49hupJYbrELtxVHKQKyuh2E6hSoLK-AyUHsDgd1Q0v1x0MrOTgfFPLxs7AjG0MS2pcSj7ScMWw0rPWrt-2C2nArP_3iZ8saOZQKmSvA5NW6KollkbPErwGeWCO698BH7S53pHw7b9N32VzbZprmgp9P5nHSpqCsvLbfm0Wq0_X0fOlr3Ao42Ba4gRtQoMszX52RhT6TQi1vvLqGzx33MlXTEWz4ppzUmMAJWWsrQHT54TR6YlUDnA9TChPKJU39ZWLOOAIhRoP2h-nQX2-UJOILGo9Pjl4XxX6wf9qI4YOgcfUgQ-8RfE7FSWspU_wWtdNqe6oWdvnriwUL7ymdfg-VJn6upkhAUGjUNqxaZR4iwKD8wTeLJy6ZlmkYxv5GgsJajMl0p--rYInovpNxB3jvaNwGJZ5ydjZiq_99YoWU6w06Zu_jlag_KPhvqYv6raVEHjT9eNJDi7sCRufeP3rZUZAQNpF8nDspezFVIReUgnT3Z3EKjLT-FqkMerjnIcfPq8JScMhDJ98M_nzlQQDtNART_0c5pqLnfECvk6RBIQd_BhxeRwpWT6HSFLP3TIS5_7-yrHTyskw_1s1ZIv8YlwREDgha1kklqaPBEGM3bAw9XufLkOHJGO5OlaYsfESgibZhCNNE3ctGSqxhrAZmjQfT5yyNE7gurHabc0BdtrIanfBsqzVZxTnnqdx-J54YpbDwwCfv2WsHH7GZsjMcgeVd9JS_zC4uRxr3eqclGMI_L1M0IpSX1IjbPveuHz_kIvVEVdIhDnmhNDmrlOsnVTqOG9cNY9dr3RrZRvP6Dk_pYK40OzArMEkWvX-gCBzwTdLrdjjpGgOT70kVPmzc9OayduDQl8DRGRzcj44qMsSRQVBWW74FRfEYaJZ0wfZNiiv9FU7g0FnFUnjGZTUlxcuhgOphas_Jx-viY7BWvFpsCcdStLxAYRl4z39ReHFfJ0kjGfsAVE9gYFb_EjhsPhxWALFrttxmWlQkdlGGCjD7zf4zA7ImVpSflK4or6ykzYDHqN_G_8_QQCtshoCBuowaKh7JzL2YkDXxhffKdhti4hgNevKyv8pBjDahdfCC89rldPIrlDcmzXn93RQaQFF3YHntXva1amoUNdz1FtZLrblpYLfJhULTHisYCPACKI6F5Je1ooXI3xv8oLhkipdN-OfFKV9Ln9jD7-V0OKHvGR_L6AxI4J81baGVroV3GqolMo1MA80yMM1Aa2dDhEf8qZbmA8RU_Wt8JeRoB726Ul8yLreF4zxxr4N62_1Y1VnAFRn7R7YIqH3Sxbp61gDAZ1ORjUO1r30c2LM8Dy8dCaGpHYivYFA5sBisDK7q11HeIj5z7f7oe8FN4G1nWUXqROVkk8moABckgZDAa54shbelYi6Vf800BsHU6nU7Inz5nL1wYyKXxyOg4M7V1VkydaZ-0G00?></g></svg>